<?xml version="1.0" standalone="no"?>
<!DOCTYPE svg PUBLIC "-//W3C//DTD SVG 1.1//EN" "http://www.w3.org/Graphics/SVG/1.1/DTD/svg11.dtd" >
<svg xmlns="http://www.w3.org/2000/svg">
<metadata></metadata>
<defs>
<font id="oregon_ldo_medium_sinistralRg" horiz-adv-x="688" >
<font-face units-per-em="2048" ascent="1638" descent="-410" />
<missing-glyph horiz-adv-x="569" />
<glyph horiz-adv-x="0" />
<glyph unicode="&#xd;" horiz-adv-x="569" />
<glyph unicode=" "  horiz-adv-x="569" />
<glyph unicode="&#x09;" horiz-adv-x="569" />
<glyph unicode="&#xa0;" horiz-adv-x="569" />
<glyph unicode="!" horiz-adv-x="356" d="M-63 1321q-12 59 15.5 84t67.5 25q43 0 81 -25t51 -84q2 -12 10 -62.5t18 -128t22.5 -174t27 -201t26.5 -210t25 -199.5h-62q-10 37 -33.5 117t-53.5 181t-62.5 211t-60 205t-48 166.5t-24.5 94.5zM178 100q-10 53 17.5 89t80.5 36t97.5 -35.5t54.5 -89.5 q10 -51 -17.5 -88t-80.5 -37t-97.5 37t-54.5 88z" />
<glyph unicode="&#x22;" horiz-adv-x="591" d="M14 1430h127l129 -603h-127zM315 1430h127l129 -603h-127z" />
<glyph unicode="#" horiz-adv-x="905" d="M98 872q10 37 12.5 93.5t-6.5 93.5h150q0 82 -1 135t-2 85t-2 48t-3 29q20 -4 32.5 -7t22.5 -3q16 0 59 12q-4 -16 -6 -32.5t-4 -46.5t-3 -81t-1 -139h211q-2 82 -2 135t-1 85t-2 48t-3 29q20 -4 32.5 -7t22.5 -3q16 0 60 12q-4 -16 -6.5 -32.5t-4.5 -46.5t-3 -81 t-1 -139h154q-4 -18 -7 -43t-4 -51.5t0 -50t5 -42.5h-150q2 -104 2 -199t2 -200h156q-4 -18 -7 -42.5t-4 -51.5t0 -50.5t5 -41.5h-148v-129.5v-84t1 -50t1 -29.5q-16 0 -28.5 3t-22.5 3t-25.5 -3t-33.5 -3q2 16 5 32.5t5 46t3 80t1 134.5h-209v-129.5v-84t1 -50t1 -29.5 q-16 0 -28.5 3t-22.5 3t-25.5 -3t-33.5 -3q2 16 5 32.5t5 46t3 80t1 134.5h-154q10 37 12.5 93t-5.5 93h149l-4 399h-156zM340 473h221l-4 399h-213q2 -104 1 -199t-5 -200z" />
<glyph unicode="$" horiz-adv-x="905" d="M-14 999q-31 147 42.5 248t229.5 123q-8 37 -20.5 78t-36.5 88q49 -16 71 -16q25 0 64 16q-2 -43 3 -83t13 -77q129 -2 205 -34.5t125 -63.5q-10 -35 -14 -75t-4 -101h-41q-16 27 -38 56.5t-52.5 56t-69.5 45t-90 22.5l106 -498q94 -35 170 -68.5t131.5 -76.5t90 -97.5 t51.5 -127.5q16 -76 7 -146.5t-43 -128t-93.5 -98.5t-143.5 -59q12 -57 26.5 -114.5t37.5 -119.5q-45 16 -68 16q-20 0 -63 -16q0 57 -8.5 112.5t-18.5 106.5q-4 0 -7 -1t-7 -1q-109 0 -203 25.5t-197 95.5q10 47 9.5 86t-7.5 98h37q49 -63 96.5 -103t91.5 -62.5t86 -32 t81 -9.5l-117 553q-98 35 -172 71t-126 81t-86 100.5t-48 130.5zM150 1055q16 -86 73.5 -143.5t151.5 -92.5l-96 455q-72 -18 -110 -76.5t-19 -142.5zM522 582l107 -506q78 29 113.5 101.5t17.5 164.5q-6 31 -17.5 59.5t-37 58t-68.5 59.5t-115 63z" />
<glyph unicode="%" horiz-adv-x="1742" d="M-33 1168.5q10 62.5 44 108.5t89.5 72.5t130.5 26.5q76 0 143.5 -26.5t122 -72.5t91.5 -108.5t53 -136.5t6 -137.5t-45 -109.5t-91 -72.5t-132 -26.5t-142.5 26.5t-120 72.5t-91.5 109.5t-52 137.5q-16 74 -6 136.5zM128 1135.5q1 -50.5 13 -103.5t32 -103t48.5 -89 t64.5 -61.5t79 -22.5t69.5 22.5t38.5 61.5t11 89t-13 103t-31.5 103.5t-48.5 88.5t-65.5 61.5t-79.5 23.5t-68.5 -23.5t-38 -61.5t-11.5 -88.5zM584 -86l448 1511q33 -12 55 -12q20 0 64 19l-449 -1512q-16 6 -29.5 8t-23.5 2q-27 0 -65 -16zM1094 449.5q10 62.5 45 108.5 t91 72.5t132 26.5t142.5 -26.5t120.5 -72.5t91 -108.5t53 -136.5q14 -74 4 -137t-43.5 -109.5t-89 -73t-131.5 -26.5t-143.5 26.5t-121.5 73t-92 109.5t-52 137q-16 74 -6 136.5zM1256.5 416.5q1.5 -50.5 13.5 -103.5t31.5 -103t47 -89t64.5 -61.5t80 -22.5t69.5 22.5 t39 61.5t11.5 89t-14 103q-12 53 -31.5 103.5t-48 88.5t-64.5 61.5t-79 23.5t-69.5 -23.5t-39 -61.5t-11 -88.5z" />
<glyph unicode="&#x26;" horiz-adv-x="1312" d="M123 315q-29 137 49 254t221 187q-78 82 -129 157.5t-67 151.5q-14 66 -2 122t45.5 98t87 66.5t123.5 24.5q123 0 214 -59.5t115 -175.5q12 -57 -2 -109.5t-43.5 -97.5t-70.5 -83t-80 -65q12 -12 24.5 -25t24.5 -26q98 -100 193.5 -194.5t189.5 -180.5q47 98 85 196.5 t66 217.5q27 -41 56.5 -65.5t58.5 -40.5q-45 -98 -89 -188.5t-106 -188.5q78 -72 166 -151t166 -150q-39 0 -55 4q-25 4 -50.5 5t-47.5 1q-20 0 -44 -2t-46 -6q-6 0 -14.5 -1t-14.5 -1q-25 29 -65 72.5t-93 93.5q-35 -45 -73.5 -81t-86 -60.5t-104.5 -38t-129 -13.5 q-80 0 -158 22.5t-141.5 66.5t-109.5 110.5t-64 152.5zM301 352q12 -53 44 -102t78 -87t103.5 -61.5t120.5 -23.5q98 0 160.5 36t116.5 101q-125 119 -240 234.5t-231 238.5q-92 -66 -134.5 -140.5t-17.5 -195.5zM348 1120q6 -27 22.5 -61.5t41 -71.5t54.5 -75t60 -70 q86 63 114.5 146t12.5 155q-14 68 -63 112.5t-121 44.5q-74 0 -105.5 -52t-15.5 -128z" />
<glyph unicode="'" horiz-adv-x="294" d="M12 1430h127l129 -603h-127z" />
<glyph unicode="(" horiz-adv-x="440" d="M-10.5 803.5q-1.5 114.5 17 225t59 212.5t104.5 193l68 -50q-57 -98 -86 -193t-35 -193.5t6 -202t37 -217.5q25 -115 56.5 -218.5t79.5 -202t116.5 -193.5t167.5 -193l-45 -52q-203 180 -336 401.5t-185 457.5q-23 111 -24.5 225.5z" />
<glyph unicode=")" horiz-adv-x="440" d="M-141 1384l43 52q203 -180 336 -401.5t184 -456.5q23 -111 25 -225.5t-17.5 -225.5t-60.5 -214t-105 -192l-65 50q57 98 84.5 193t34 193.5t-5 202t-36.5 218.5t-56.5 218t-79.5 201.5t-115.5 193.5t-165.5 193z" />
<glyph unicode="*" horiz-adv-x="749" d="M-14 1155q16 20 31.5 54t7.5 75l290 -186l-94 309q49 -14 76 -14q16 0 29.5 3t35.5 11l35 -309q49 45 105.5 93t103.5 91q14 -39 40 -71.5t61 -53.5l-254 -127q78 -33 155.5 -67.5t149.5 -63.5q-20 -18 -34.5 -51t-10.5 -70l-287 174q23 -72 48.5 -150.5t47.5 -150.5 q-20 4 -38.5 8.5t-32.5 4.5q-18 0 -35 -3.5t-35 -7.5l-35 299q-47 -41 -101.5 -88t-101.5 -88q-14 39 -40.5 72t-57.5 51l250 129q-78 31 -158 64.5t-151 62.5z" />
<glyph unicode="+" horiz-adv-x="1048" d="M-8 584h454l-98 458h127l98 -458h457l27 -125h-457l96 -459h-127l-96 459h-457z" />
<glyph unicode="," horiz-adv-x="360" d="M72 -336l53 500q2 29 18.5 56.5t61.5 27.5q29 0 60.5 -18.5t41.5 -59.5q4 -23 -2 -46.5t-12 -45.5h2q-41 -106 -83 -217t-81 -217zM295 76v2v-2z" />
<glyph unicode="-" d="M66 549h522l30 -146h-522z" />
<glyph unicode="." horiz-adv-x="360" d="M53 100q-12 53 16.5 89t82.5 36q53 0 96 -35.5t55 -89.5q10 -51 -18.5 -88t-81.5 -37t-96.5 37t-53.5 88z" />
<glyph unicode="/" horiz-adv-x="684" d="M152 -55l249 1499q23 -6 37.5 -10t24.5 -4t27.5 5t39.5 13l-249 -1499q-23 6 -37.5 10t-24.5 4t-27.5 -5t-39.5 -13z" />
<glyph unicode="0" horiz-adv-x="1093" d="M30.5 945q-1.5 128 34 224.5t115.5 151.5t215 55q147 0 254 -55t180.5 -151.5t121.5 -224.5t79 -273q29 -139 28 -267.5t-40 -225.5t-118 -154.5t-204 -57.5q-147 0 -253.5 56.5t-180.5 151.5t-121 223.5t-78 273.5t-32.5 273zM210 927.5q9 -114.5 40 -255.5 q27 -131 66.5 -245t92 -197t119 -130t150.5 -47q82 0 129 47t64.5 130t8 197t-35.5 245q-29 131 -69 244.5t-92 197.5t-119.5 131t-149.5 47q-84 0 -131 -44t-64.5 -125t-8.5 -195.5z" />
<glyph unicode="1" horiz-adv-x="569" d="M-111 1192q119 53 228.5 108.5t193.5 102.5l29 -17q20 -131 44 -264t52 -266l72 -338q29 -129 61.5 -265t67.5 -265q-59 12 -107 12q-51 0 -102 -12q-18 131 -43 266t-53 264l-150 703q-53 -31 -105 -64t-102 -65q-14 20 -35.5 38.5t-43.5 32.5z" />
<glyph unicode="2" horiz-adv-x="983" d="M27 1167q45 109 127 159t211 50q82 0 157.5 -21.5t139 -65.5t108.5 -113.5t66 -165.5q14 -72 12 -132.5t-21.5 -118t-55.5 -115.5t-87 -124q-10 -14 -22.5 -29.5t-24.5 -31.5q-29 -37 -61.5 -80t-63.5 -84t-58.5 -81t-45.5 -71h172q145 0 265 5.5t202 11.5q-2 -51 4 -86 q4 -14 12 -36t18 -48q-109 4 -224.5 7t-223.5 3q-111 0 -221.5 -3t-221.5 -7l-10 47q113 139 194 245.5t136 191.5t87 151.5t45 127t10 120t-17 126.5q-33 147 -113 215t-166 68q-61 0 -101 -22.5t-62.5 -56.5t-29.5 -71.5t-7 -68.5l-29 -4z" />
<glyph unicode="3" horiz-adv-x="940" d="M-2 1247q18 23 41.5 45.5t56.5 41t77 30.5t101 12q82 0 159 -18.5t138.5 -56t105.5 -96t60 -138.5q14 -72 3 -128t-39.5 -98t-68.5 -71t-81 -43q53 -6 114.5 -25.5t117 -56.5t98.5 -95t61 -144q20 -94 0 -174t-76.5 -138.5t-145.5 -92.5t-208 -34q-111 0 -191.5 23.5 t-144.5 52.5q4 20 4 60t-4 73l23 14q23 -23 55.5 -47t70 -43.5t82 -33t91.5 -13.5q145 0 209.5 91.5t33.5 234.5q-35 162 -124 226.5t-211 64.5q-20 0 -48 -5.5t-53 -11.5q-2 16 -2 31.5t-4 26.5q-2 10 -7 24.5t-9 30.5q57 -10 104 -10q68 0 104.5 28.5t51 72.5t12.5 96.5 t-12 101.5q-12 61 -40 106t-64 75t-75.5 43t-78.5 13q-78 0 -126 -49t-57 -113l-30 -4z" />
<glyph unicode="4" horiz-adv-x="1040" d="M57 412q63 125 132 261t131.5 265t115.5 240.5t86 187.5q47 -10 74 -10q16 0 34.5 4t39.5 8q14 -88 33.5 -193.5t42 -219t47 -230.5t47.5 -223q57 0 109 4t89 12q-4 -51 2 -78q4 -16 12.5 -35.5t18.5 -44.5q-41 8 -95 11.5t-110 3.5l17 -74q14 -68 32.5 -141.5 t32.5 -126.5q4 -10 7 -23.5t6 -21.5q-59 12 -101 12q-47 0 -98 -12q-8 59 -20.5 148t-28.5 165l-17 74q-51 0 -140 -2t-183 -4t-179 -4.5t-126 -4.5zM227 502h443l-140 637q-33 -66 -75.5 -153t-86.5 -178t-82 -173t-59 -133z" />
<glyph unicode="5" horiz-adv-x="944" d="M33 1360l22 16q16 -4 46 -7t73 -5q45 -2 106.5 -3t139.5 -1q94 0 174 1t115 1l18 -12q-4 -29 0 -59.5t8 -59.5q4 -10 6 -19.5t9 -25.5q-49 8 -124 14t-155 9t-155.5 4t-125.5 1l66 -432q35 18 81 31.5t126 13.5q90 0 171 -31.5t143.5 -85t106.5 -124t60 -148.5 q20 -98 1 -183t-72.5 -149.5t-140.5 -101.5t-200 -37q-92 0 -183 19.5t-169 66.5l-6 25q6 25 7 60.5t-3 64.5h29q27 -37 64.5 -65.5t79.5 -47t86 -28t85 -9.5q57 0 105.5 21.5t81 66.5t43 114t-10.5 161q-18 82 -53 140t-81 95t-99 54.5t-105 17.5q-41 0 -72.5 -8t-55 -20.5 t-40 -24t-24.5 -17.5l-39 23q-4 86 -18.5 174t-32.5 172q-18 86 -41 177t-47 161z" />
<glyph unicode="6" horiz-adv-x="1005" d="M52 880.5q7 147.5 59.5 258t149.5 174t243 63.5h12q33 0 52.5 -2t41.5 -6l52 -76l-15 -16q-27 6 -53.5 11t-58.5 5q-111 0 -176.5 -65.5t-96.5 -161.5t-31 -208t19 -204q14 31 36.5 61.5t56.5 55.5t80 39t107 14q55 0 129 -16t146 -59t131 -119t84 -195q23 -104 8.5 -190 t-60.5 -147.5t-124 -95.5t-182 -34q-90 0 -178.5 32t-167 102.5t-140 183t-96.5 274.5v6q-35 168 -28 315.5zM307 527.5q-8 -62.5 8 -136.5q14 -74 47 -136t78 -107.5t97.5 -70t107.5 -24.5q123 0 170 94t16 244q-33 150 -111.5 244t-205.5 94q-57 0 -101 -24.5t-71 -69.5 t-35 -107.5z" />
<glyph unicode="7" horiz-adv-x="950" d="M-82 1364q82 -4 155.5 -8t129.5 -6q35 0 85 -1t103 -2t105.5 -1h89.5q33 0 60.5 1t53.5 1h105l8 -45q-115 -309 -233.5 -648.5t-214.5 -666.5q-47 12 -86 12q-31 0 -91 -16q61 152 130 323.5t132.5 335.5t117 306.5t85.5 236.5q-94 0 -270 -2t-424 -19q-2 27 -4 54.5 t-6 46.5q-4 18 -13.5 44.5t-17.5 53.5z" />
<glyph unicode="8" horiz-adv-x="1034" d="M47 1047q-14 66 1 125t56 105t106.5 72.5t154.5 26.5q102 0 182 -25.5t138 -67.5t93 -97.5t47 -114.5q20 -96 -18.5 -183t-138.5 -122q39 -8 93 -29.5t107.5 -62.5t98.5 -103.5t63 -152.5q20 -102 2 -185t-67.5 -142.5t-127 -91.5t-171.5 -32q-98 0 -188.5 26.5t-163 79 t-124 127.5t-71.5 171q-27 125 20 229.5t193 157.5l-4 2q-41 10 -85 33.5t-84 60.5t-70 85t-42 108zM223 1139q-2 -45 8 -95q10 -49 33 -95t54.5 -79.5t75.5 -54t98 -20.5q55 0 89.5 20.5t53 54t20.5 79.5t-8 95t-32.5 94.5t-55.5 79t-76 54t-98 20.5q-53 0 -88 -20.5 t-53.5 -54t-20.5 -78.5zM315 381q14 -72 45 -132.5t75 -103.5t97.5 -67.5t114.5 -24.5q123 0 172.5 92.5t20.5 235.5q-16 72 -47 132t-75 104.5t-97.5 69t-114.5 24.5q-123 0 -172 -92.5t-19 -237.5z" />
<glyph unicode="9" horiz-adv-x="1019" d="M-17 1110q15 82 62 140.5t124 92t181 33.5q92 0 183.5 -31.5t170 -101t140 -182.5t96.5 -275q37 -170 26.5 -319.5t-64.5 -260t-152.5 -175t-241.5 -64.5q-53 0 -100.5 10.5t-75.5 20.5q-12 29 -31.5 65.5t-40.5 59.5l19 16q53 -41 109 -63.5t112 -22.5q102 0 164.5 55.5 t90 145.5t26.5 203.5t-23 230.5q-35 -74 -102.5 -120t-180.5 -46q-186 0 -316 107.5t-171 304.5q-20 94 -5 176zM184 934q35 -166 115 -241t190 -75q68 0 113 31t69.5 83t28.5 117.5t-10 137.5q-14 68 -45 124t-73 96t-95 62.5t-110 22.5q-115 0 -166 -96t-17 -262z" />
<glyph unicode=":" horiz-adv-x="378" d="M-16 840q-10 53 16.5 89t79.5 36t97 -36t54 -89q10 -51 -17.5 -88t-80.5 -37t-96 37t-53 88zM139 100q-10 53 17.5 89t81.5 36q53 0 97 -35.5t54 -89.5q10 -51 -17.5 -88t-80.5 -37t-97.5 37t-54.5 88z" />
<glyph unicode=";" horiz-adv-x="393" d="M14 840q-10 53 18.5 89t82.5 36q51 0 96 -36t55 -89q10 -51 -18.5 -88t-79.5 -37q-53 0 -98.5 37t-55.5 88zM156 -336l53 500q2 29 18.5 56.5t61.5 27.5q29 0 61.5 -18.5t40.5 -59.5q4 -23 -1 -46.5t-13 -45.5h2q-39 -106 -82 -217t-82 -217zM379 76v2v-2z" />
<glyph unicode="&#x3c;" horiz-adv-x="1124" d="M-10 584l936 485l26 -131l-819 -418q248 -104 499 -208.5t498 -209.5l27 -129l-1145 490z" />
<glyph unicode="=" horiz-adv-x="1144" d="M31 780h1040l27 -127h-1041zM113 387h1040l27 -125h-1041z" />
<glyph unicode="&#x3e;" horiz-adv-x="1122" d="M-35 1069l1141 -489l27 -121l-938 -486l-27 129l821 418q-250 104 -499.5 209t-497.5 209z" />
<glyph unicode="?" horiz-adv-x="585" d="M-104 1358q37 25 84 48.5t116 23.5q76 0 138.5 -23t109.5 -60.5t78 -88t43 -105.5q12 -61 6 -111.5t-25.5 -95.5t-47 -83t-56.5 -75q-25 -31 -47.5 -61.5t-37.5 -61t-21.5 -62.5t2.5 -66q8 -35 38.5 -72t77.5 -37q23 0 40.5 7t23.5 11l33 -16q-10 -12 -13.5 -31.5 t-1.5 -36.5q-16 -4 -34.5 -7t-45.5 -3t-67.5 12.5t-81.5 40t-76 71.5t-49 110q-12 55 -6 101t24.5 87t44 77t52.5 71q25 31 47 60.5t37.5 60t21.5 64.5t-2 73q-8 37 -27.5 65.5t-47 48t-59.5 30.5t-63 11q-53 0 -96 -30.5t-69 -77.5zM252 100q-10 53 18.5 89t79.5 36 q53 0 97.5 -35.5t54.5 -89.5q10 -51 -17.5 -88t-81.5 -37q-51 0 -96 37t-55 88z" />
<glyph unicode="@" horiz-adv-x="1402" d="M59 692q-25 123 0 239t97.5 206t191.5 145t281 55q168 0 288.5 -43t201.5 -112.5t128 -157.5t66 -178q25 -111 6 -203t-64 -156.5t-107.5 -100.5t-129.5 -36q-80 0 -115 33t-55 92q-25 -49 -72 -87t-114 -38q-111 0 -185 69.5t-104 211.5q-23 102 -10.5 187t49.5 146.5 t97 95.5t138 34q53 0 102.5 -21.5t79.5 -68.5l-2 71h125q0 -193 1 -303t2 -169.5t3.5 -81t4.5 -34.5q6 -29 25.5 -45t45.5 -16q39 0 77 28.5t64.5 80t37 121t-8.5 149.5q-20 98 -60 180t-106.5 141.5t-165 92t-233.5 32.5q-121 0 -212 -48t-146.5 -133t-73 -198.5 t11.5 -244.5q25 -119 81 -208t135 -148.5t176.5 -89t203.5 -29.5q72 0 135.5 16t117.5 42t100 57.5t81 62.5l11 -92q-23 -25 -63 -55.5t-99.5 -58.5t-137 -47.5t-174.5 -19.5q-100 0 -212.5 38t-216 117t-183.5 197.5t-115 282.5zM508 750.5q0 -68.5 12 -127.5 q18 -90 52 -134.5t102 -44.5q57 0 89 47.5t46 114t12 139t-12 123.5q-14 59 -44 100.5t-99 41.5q-55 0 -89 -38t-51.5 -95.5t-17.5 -126z" />
<glyph unicode="A" horiz-adv-x="1355" d="M172 -14q86 356 171 719.5t163 724.5h55q53 -84 113.5 -179.5t122.5 -193.5q96 -154 200.5 -318t197.5 -311t170 -264t118 -178q-39 6 -71 10t-54 4q-49 0 -113 -12q-45 90 -111.5 202.5t-138.5 225.5q-20 33 -37.5 59.5t-33.5 54.5q-66 2 -130.5 3.5t-129.5 1.5 q-61 0 -118 -1.5t-118 -3.5q-29 -154 -52.5 -298t-29.5 -244q-47 12 -84 12q-20 0 -42.5 -4t-47.5 -10zM451 645q23 0 46 -1t46 -1q29 -2 55.5 -1.5t52.5 0.5q57 0 105.5 0.5t105.5 2.5l-309 473q-27 -125 -51.5 -237.5t-50.5 -235.5z" />
<glyph unicode="B" horiz-adv-x="1064" d="M-68 1403q53 -4 109.5 -7t116.5 -3q25 0 51.5 1t54.5 3q29 2 52.5 4t52.5 2q88 0 171 -13.5t149.5 -48t113.5 -93t65 -146.5q11 -51 11 -94q-1 -79 -37 -133q-56 -84 -187 -123q164 -18 270.5 -99.5t141.5 -246.5q11 -51 11 -96q0 -55 -17 -99q-31 -80 -96.5 -129 t-153.5 -70.5t-178 -21.5q-23 0 -48.5 1t-52.5 3q-25 2 -48 4t-48 2q-55 0 -106 -3t-99 -7q-23 133 -46 269t-52 265l-74 348q-29 131 -60.5 266.5t-66.5 264.5zM168 1300q4 -29 10 -59.5t10 -58.5q10 -66 21.5 -129.5t26.5 -126.5l28 -142h98q70 0 134.5 13.5t110.5 44.5 q45 32 67 86q12 30 12 68q0 32 -8 69q-16 78 -55 126t-89.5 73.5t-109.5 35t-115 9.5q-45 0 -80.5 -2t-60.5 -7zM285 688l43 -194q14 -70 30.5 -137.5t34.5 -137.5q8 -33 15.5 -62.5t15.5 -64.5q39 -4 89 -6t99 -2q63 0 115.5 21.5t87.5 63.5q35 41 47 103q5 26 5 57 q0 40 -9 85q-18 84 -60 137t-105.5 84t-146.5 42t-181 11h-80z" />
<glyph unicode="C" horiz-adv-x="1341" d="M45 1006q27 136 109 230.5t212 144t300 49.5q133 0 255.5 -29t217.5 -68q-9 -31 -11 -78q-1 -20 -1 -38q0 -23 1 -41v-17l-24 -4q-27 25 -69 55.5t-96 58t-118.5 47t-134.5 19.5q-117 0 -209 -37.5t-149.5 -115.5t-72.5 -199q-5 -37 -4 -78q0 -94 23 -209 q35 -166 102.5 -285.5t158 -198.5t199 -116t224.5 -37q72 0 130.5 18.5t104.5 44t81 55.5t59 52l23 -16l6 -131q-16 -16 -52 -36.5t-88.5 -39t-120 -31t-143.5 -12.5q-162 0 -309 49t-267 143.5t-205 230.5t-122 310q-21 101 -21 189q0 63 11 121z" />
<glyph unicode="D" horiz-adv-x="1445" d="M-61 1403q76 -4 156.5 -7t156.5 -3q39 0 77 1t74 3q39 2 77 4t75 2q180 0 318.5 -47t238.5 -134t164.5 -213t99.5 -284q22 -105 22 -193q0 -84 -20 -152q-41 -140 -132 -227t-214 -125t-244 -38q-35 0 -68.5 1t-68.5 3t-68.5 4t-66.5 2q-70 0 -141.5 -3t-136.5 -7 q-23 131 -47.5 267t-51.5 265l-76 348q-29 131 -60.5 266.5t-63.5 266.5zM176 1280q14 -96 32.5 -198.5t41.5 -211.5l76 -348q23 -109 47 -212t53 -208q45 -10 114.5 -14t143.5 -4q111 0 214 26.5t175 97.5q71 72 99 196q11 50 12 111q0 92 -25 210q-37 172 -102.5 283.5 t-154.5 176t-197.5 89t-231.5 24.5q-86 0 -161.5 -5t-135.5 -13z" />
<glyph unicode="E" horiz-adv-x="851" d="M-68 1403q92 -4 185.5 -7t185.5 -3t186.5 3t182.5 7q0 -20 2 -36.5t6 -33.5q4 -16 8 -33.5t14 -37.5q-29 2 -61.5 4t-56.5 4q-43 4 -87 7t-93.5 6t-107.5 4t-132 1q8 -45 14 -86q6 -35 13.5 -77t17.5 -83q10 -47 20.5 -92t18.5 -86l16 -78q166 0 279.5 5.5t210.5 15.5 q0 -18 2 -37.5t6 -36.5q6 -29 22 -74q-55 6 -125.5 10.5t-140 6.5t-131 3t-100.5 1q2 -16 7 -37.5t11 -53.5t16.5 -78t24.5 -114q23 -117 39 -185.5t27 -107.5q68 0 142.5 1t147 4.5t138 8.5t114.5 15q0 -23 1 -43t6 -31q4 -14 8 -32.5t14 -36.5q-92 4 -188.5 7t-188.5 3 t-187 -3t-188 -7q-23 133 -46 269t-52 265l-74 348q-29 131 -60.5 266.5t-66.5 264.5z" />
<glyph unicode="F" horiz-adv-x="845" d="M-68 1403q92 -4 185.5 -7t185.5 -3t189.5 3t205.5 7q0 -39 7 -70q4 -16 9 -34.5t15 -38.5q-59 6 -137 11t-158 9t-153.5 6t-122.5 2l4 -18q10 -63 21.5 -120.5t23.5 -115.5q8 -37 16 -69.5t15 -63.5l24 -113q125 0 255 4.5t263 18.5q0 -18 1 -36.5t5 -35.5 q4 -16 10.5 -35.5t14.5 -37.5q-117 12 -257 15t-269 3l32 -162q29 -129 63 -266t69 -268q-68 12 -111 12q-49 0 -107 -12q-23 131 -46 268t-52 266l-74 348q-29 131 -60.5 266.5t-66.5 266.5z" />
<glyph unicode="G" horiz-adv-x="1460" d="M50 1006q28 137 112 231t220 143.5t318 49.5q102 0 186.5 -11.5t152 -30t120.5 -40t94 -41.5q-8 -29 -11 -77q-1 -21 -1 -41q0 -26 2 -52h-39q-39 37 -90 72.5t-113.5 63t-133 45t-146.5 17.5q-123 0 -221.5 -37.5t-159.5 -115.5t-80 -199q-6 -43 -6 -91q0 -88 22 -196 q31 -145 95.5 -262t158 -197.5t213 -123.5t258.5 -43q41 0 85 3t84 11t74 18.5t56 26.5q-10 59 -21 118.5t-24 119.5q-12 59 -26.5 115.5t-30.5 111.5q-4 12 -8 31.5t-6 29.5q25 -6 53.5 -8t54.5 -2q23 0 45.5 1t48.5 11q6 -45 27 -151.5t55 -272.5l17 -79q4 -23 10 -46.5 t10 -44.5q-41 -16 -101.5 -33.5t-130 -31.5t-140 -24.5t-129.5 -10.5q-182 0 -338 47t-279 139.5t-207 229.5t-121 317q-21 99 -21 186q0 66 12 124z" />
<glyph unicode="H" horiz-adv-x="1398" d="M-66 1405q68 -12 111 -12q45 0 107 12q23 -131 45 -267.5t51 -267.5l14 -61q33 0 65.5 -1t65.5 -1q70 -2 139.5 -3t141.5 -1t141.5 1t138.5 3q35 0 66 1t65 1l-14 61q-29 131 -61.5 267.5t-67.5 267.5q68 -12 111 -12q47 0 108 12q23 -131 45.5 -267.5t50.5 -267.5 l76 -348q27 -129 60.5 -266t68.5 -268q-68 12 -112 12q-45 0 -107 -12q-23 131 -46 268t-50 266l-37 172q-104 2 -206.5 3t-207.5 1q-106 0 -204.5 -1t-204.5 -3l37 -172q27 -129 60.5 -266t68.5 -268q-68 12 -111 12q-47 0 -109 -12q-23 131 -46 268t-50 266l-76 348 q-29 131 -60.5 267.5t-66.5 267.5z" />
<glyph unicode="I" horiz-adv-x="370" d="M-76 1405q63 -12 109 -12q47 0 106 12q23 -131 45.5 -267.5t51.5 -267.5l75 -348q27 -129 61 -266t68 -268q-66 12 -110 12q-49 0 -107 -12q-23 131 -46 268t-50 266l-76 348q-29 131 -60.5 267.5t-66.5 267.5z" />
<glyph unicode="J" horiz-adv-x="585" d="M100 1405q68 -12 111 -12q47 0 106 12q23 -131 45.5 -267.5t51.5 -267.5q10 -47 23.5 -109.5t28.5 -134t30.5 -147.5t29.5 -151q10 -49 24.5 -115t28 -130.5t23.5 -118.5t16 -79q12 -54 12 -104q0 -36 -6 -69q-14 -81 -57 -140t-115.5 -94t-168.5 -35l-37 76q88 0 132 39 t56 108q6 33 6 71q0 44 -8 97q-14 98 -39 215l-164 821q-29 131 -61.5 267.5t-67.5 267.5z" />
<glyph unicode="K" horiz-adv-x="1189" d="M-66 1405q63 -12 109 -12q45 0 107 12q23 -131 45 -267.5t51 -267.5l24 -110q0 -6 4 -6q2 0 19 16q55 59 115.5 135t122 160t122 171t115.5 169q49 -12 88 -12q53 0 129 16q-59 -66 -134 -152t-149.5 -175t-140 -173t-108.5 -145q100 -92 203.5 -186.5t209.5 -192.5 q102 -94 216 -198.5t218 -200.5q-43 6 -81.5 10t-67.5 4q-55 0 -113 -10q-59 57 -128.5 124.5t-141.5 137.5t-142.5 137.5t-132 124.5t-111.5 102.5t-79 69.5q-16 14 -20 14l39 -178q27 -129 60.5 -266t68.5 -268q-68 12 -111 12t-94 -10l-15 10q-23 131 -45 262t-49 260 l-76 348q-29 131 -60.5 267.5t-66.5 267.5z" />
<glyph unicode="L" horiz-adv-x="841" d="M-68 1405q63 -12 109 -12q45 0 106 12q23 -131 45.5 -267.5t51.5 -267.5q43 -199 76.5 -352t62.5 -282q8 -37 15.5 -67t15.5 -65h136t133 3.5t137.5 9.5t148.5 16q-2 -23 -3 -40t3 -32q4 -14 12 -31.5t18 -39.5q-94 4 -194 7t-193 3q-94 0 -191 -3t-190 -7 q-23 131 -46 267t-50 265l-76 348q-29 131 -60.5 267.5t-66.5 267.5z" />
<glyph unicode="M" horiz-adv-x="1767" d="M111 1430h53q199 -285 395.5 -553.5t411.5 -550.5q10 33 26.5 82t35 108t40 126t43.5 134q27 80 55.5 165t56 170t54.5 166t49 153h39q47 -137 89 -269.5t83 -259.5q76 -227 151.5 -459.5t151.5 -453.5q-59 12 -108 12q-47 0 -103 -12q-41 135 -77.5 264t-75.5 255 t-79 252t-85 255q-6 -23 -12.5 -43.5t-16.5 -40.5q-35 -106 -70.5 -215t-70.5 -223.5t-67.5 -236.5t-61.5 -255h-35q-115 166 -236.5 339t-246.5 347q-61 84 -117.5 161t-120.5 163q12 -125 25.5 -267.5t30 -280.5t33 -262t34.5 -212q-47 12 -84 12q-16 0 -36.5 -4 t-43.5 -10q-10 168 -21.5 354t-24.5 374.5t-29.5 372t-34.5 343.5z" />
<glyph unicode="N" horiz-adv-x="1386" d="M-41 1430h45q29 -23 56.5 -49.5t56.5 -49.5q147 -129 302.5 -266t304 -267t282 -245t235.5 -199q-29 131 -57.5 269.5t-59 275.5t-61.5 266t-62 242q27 -6 46.5 -10t33.5 -4t34 4t42 10q4 -31 11.5 -84t16.5 -116.5t20.5 -133t22.5 -136.5t21.5 -124t18.5 -96 q12 -51 26.5 -121t31.5 -145.5t33.5 -153.5t32 -144.5t27 -116.5t17.5 -73h-43q-266 250 -564.5 512t-592.5 518l-84 72q10 -59 27.5 -149.5t47.5 -235.5q10 -43 23.5 -105.5t30 -132t33 -141.5t32.5 -134.5t28.5 -110.5t20.5 -70q-27 6 -47 10t-37 4q-16 0 -37.5 -4 t-48.5 -10q0 25 -8 82t-19.5 134t-25.5 167t-29.5 181t-31 176t-29.5 153q-41 193 -71.5 338t-51.5 213z" />
<glyph unicode="O" horiz-adv-x="1660" d="M53 1006q27 136 109 230.5t211 144t299 49.5t321.5 -49.5t273.5 -143.5t208 -230.5t122 -310.5q21 -100 21 -187q0 -65 -12 -123q-28 -136 -108.5 -230.5t-211.5 -143.5t-301 -49t-320.5 49t-272.5 143.5t-207 230.5t-122 310q-21 101 -21 189q0 63 11 121zM264 983 q-5 -37 -5 -79q0 -93 24 -208q35 -166 102.5 -285.5t157.5 -198.5t197.5 -116t224.5 -37t209 37t149 116q57 78 73 198q5 38 6 82q0 91 -24 204q-35 166 -103.5 287t-158.5 199t-198.5 115.5t-225.5 37.5t-208 -37.5t-147.5 -115.5t-72.5 -199z" />
<glyph unicode="P" horiz-adv-x="1001" d="M-68 1403q51 -4 101.5 -7t105.5 -3q25 0 61 2t70 4q35 2 65 3t52 1q31 0 77 -2t98 -12.5t106.5 -32t102.5 -60.5t86 -98t56 -145q11 -55 11 -102q0 -31 -5 -58q-12 -68 -46.5 -116t-86 -78.5t-110 -48t-116.5 -25t-107 -7.5h-80t-74 5l20 -101q29 -129 63 -266t69 -268 q-68 12 -113 12t-107 -12q-23 131 -46 268t-52 266l-74 348q-29 131 -60.5 266.5t-66.5 266.5zM154 1309l122 -582q31 -6 70 -10t68 -4q61 0 122.5 13t107.5 50q46 36 66 100q10 32 11 74q0 40 -10 90q-18 82 -52 135.5t-83.5 82t-112 40t-137.5 11.5h-172z" />
<glyph unicode="Q" horiz-adv-x="1699" d="M-37 1006q27 137 108 231t210 143.5t299 49.5t321.5 -49.5t273 -143.5t206.5 -230.5t122 -310.5q22 -98 22 -184q0 -37 -5 -72q-13 -116 -62 -205.5t-132 -150.5t-193 -92q63 -43 158 -105.5t196.5 -129t199 -128t166.5 -104.5q-66 -4 -110.5 -33t-54.5 -57 q-66 51 -162 120.5t-200.5 143.5t-205 144.5t-174.5 121.5q-14 -2 -27.5 -2h-27.5q-170 0 -320.5 49t-271.5 143.5t-205 230.5t-121 310q-21 101 -21 189q0 64 11 121zM170 983q-5 -39 -5 -82q0 -92 23 -205q35 -166 102.5 -285.5t159 -198.5t199 -116t221.5 -37 q117 0 210.5 37t150.5 116t73 198q6 39 6 82q0 91 -24 204q-35 166 -103.5 287t-158.5 199t-198.5 115.5t-225.5 37.5q-115 0 -207 -37.5t-149.5 -115.5t-73.5 -199z" />
<glyph unicode="R" horiz-adv-x="1169" d="M-66 1403q57 -4 120 -7t120 -3q29 0 57.5 1t57.5 3t56.5 4t55.5 2q88 0 170 -16.5t148.5 -54.5t114 -101.5t67.5 -155.5q9 -43 9 -81q0 -48 -14 -88q-26 -70 -77 -117.5t-115.5 -74t-121.5 -34.5q27 -27 63.5 -62.5t77.5 -78.5q68 -68 149.5 -149t160.5 -158.5 t147.5 -143t107.5 -102.5q-43 6 -82 10t-67 4q-51 0 -119 -12q-27 31 -71 79t-100 107t-119.5 126t-130.5 131.5t-130 123.5t-117 104h-61l28 -137q29 -129 63 -266t69 -268q-68 12 -111 12q-49 0 -107 -12q-23 131 -46 268t-52 266l-74 348q-29 131 -60.5 266.5 t-66.5 266.5zM168 1300q18 -111 36.5 -216t41.5 -214l22 -106q29 -4 61.5 -6t65.5 -2q61 0 125 14t112 48t72 92q13 33 13 74q0 32 -8 71q-16 76 -55.5 125t-89.5 77.5t-106.5 40t-105.5 11.5q-66 0 -109.5 -2t-74.5 -7z" />
<glyph unicode="S" horiz-adv-x="960" d="M16 1196q16 72 63.5 124t123.5 81t180 29q98 0 177 -25t155 -76q-9 -37 -15 -79q-4 -31 -5 -73q0 -15 1 -32h-41q-16 27 -40.5 60.5t-58.5 62t-77 48t-96 19.5q-109 1 -166 -67q-41 -49 -41 -118q0 -27 6 -56q14 -66 48 -110t82 -77t105.5 -56.5t119.5 -45.5 q70 -25 137 -53.5t124.5 -70.5t100.5 -102.5t62 -150.5q11 -52 11 -100q0 -40 -8 -79q-16 -85 -67 -148.5t-136 -100.5t-204 -37q-129 0 -218 39t-155 84q8 41 8 76v14q-2 41 -8 103h41q25 -35 59.5 -72t80 -67.5t99.5 -50t118 -19.5q66 0 111.5 22.5t73.5 60t36 89.5 q3 21 3 42q0 33 -7 68q-12 61 -46 104.5t-80 76t-101.5 56t-114.5 46.5q-70 27 -139.5 56.5t-129 74.5t-104.5 110.5t-66 161.5q-9 45 -9 86q-1 38 7 72z" />
<glyph unicode="T" horiz-adv-x="1097" d="M-135 1403q131 -4 267 -7t267 -3t267.5 3t265.5 7q-2 -20 -2 -36q0 -24 4 -38q6 -31 29 -76q-45 6 -100.5 10.5t-114 7.5t-117 5t-109.5 2q18 -104 38 -203.5t42 -204.5l74 -348q29 -129 62.5 -266t68.5 -268q-66 12 -111 12q-49 0 -106 -12q-23 131 -46.5 268t-51.5 266 l-74 348q-23 104 -45.5 204t-46.5 204q-51 0 -108.5 -2t-115 -5t-110.5 -7t-96 -11q2 23 2 42.5t-4 35.5q-2 12 -10.5 29.5t-18.5 42.5z" />
<glyph unicode="U" horiz-adv-x="1359" d="M-74 1405q31 -6 61.5 -9t53.5 -3q20 0 46 4t52 10q4 -49 15.5 -124t27 -167t36 -198.5t44.5 -217.5q20 -102 51 -211.5t92.5 -200.5t163 -150.5t267.5 -59.5q109 0 175 31.5t103 84.5q36 52 48 120q9 53 9 108q-1 18 -1 34q-4 72 -18 145t-26 136q-31 143 -54 253 t-41.5 191t-33 136t-26.5 90q29 -6 52.5 -10t43.5 -4q12 0 31.5 4t38.5 12q8 -72 23.5 -172t34.5 -215t40.5 -235.5t44.5 -231.5q17 -86 17 -161q1 -44 -5 -84q-16 -110 -74.5 -186.5t-157.5 -118.5t-239 -42q-305 0 -477 144.5t-235 443.5q-10 51 -17.5 94t-15.5 84 q-6 37 -12.5 71t-14.5 70q-29 143 -56.5 261t-49.5 208q-4 16 -8.5 35t-8.5 31z" />
<glyph unicode="V" horiz-adv-x="1359" d="M-125 1407q37 -6 69.5 -10t55.5 -4q47 0 109 12q147 -268 328 -569t376 -611q18 82 38.5 183.5t40 210t38 220t35 216t28 194.5t19.5 156q43 -12 84 -12q35 0 90 16q-84 -350 -158 -710.5t-133 -710.5q-43 12 -76 12q-35 0 -61 -10l-15 6q-72 125 -176 296t-221 360.5 t-239.5 385t-231.5 369.5z" />
<glyph unicode="W" horiz-adv-x="2105" d="M-94 1407q39 -6 67.5 -10t49.5 -4q47 0 106 12q72 -154 135.5 -284t131 -263t146.5 -282.5t183 -342.5q4 41 10 88.5t15 110.5q10 80 21 171t22.5 185.5t21.5 186.5t18.5 174t13.5 147.5t5 108.5q43 -12 78 -12t71 12q27 -53 76 -147.5t109.5 -207t126 -235.5t127 -235.5 t113 -204.5t81.5 -146q6 57 16.5 154.5t21.5 214.5t22.5 242t20.5 236.5t15.5 198.5t6.5 130q45 -12 82 -12q18 0 39.5 4t46.5 10q-10 -47 -26.5 -155.5t-35 -248t-39 -296t-39 -298t-33 -255t-20.5 -166.5q-41 12 -78 12q-16 0 -35.5 -3t-35.5 -9q-150 283 -297.5 560 t-315.5 576q-8 -53 -18 -134t-22.5 -177t-26 -203.5t-26.5 -216t-26.5 -212t-23.5 -193.5q-47 12 -82 12q-29 0 -66 -10l-14 8q-29 55 -86 165.5t-130 250t-151.5 292t-151.5 291t-131 248t-89 162.5z" />
<glyph unicode="X" horiz-adv-x="1228" d="M-59 1407q39 -6 70.5 -10t58.5 -4q44 0 110 12q92 -131 194.5 -262t231.5 -285q63 137 113.5 266t101.5 281q45 -12 82 -12t96 16q-20 -35 -43.5 -83t-42.5 -85q-59 -123 -118.5 -237.5t-112.5 -239.5q154 -193 318.5 -391.5t324.5 -386.5q-41 6 -74.5 10t-60.5 4 q-33 0 -59.5 -3t-55.5 -7l-74 96q-92 125 -185 249t-210 259q-72 -154 -128 -304.5t-103 -301.5q-47 12 -82 12q-37 0 -96 -16q86 174 169 355t160 355q-141 174 -289.5 356.5t-295.5 356.5z" />
<glyph unicode="Y" horiz-adv-x="1218" d="M-135 1407q41 -6 74.5 -10t60.5 -4q23 0 51.5 3t59.5 9q127 -174 256 -343t272 -349q31 72 61.5 155.5t60.5 174t56.5 182.5t48.5 180q49 -12 88 -12q33 0 99 16q-68 -154 -120 -276.5t-92 -221t-69 -176.5t-49 -139q16 -74 36.5 -162t41 -174t38 -158.5t29.5 -113.5 q-66 12 -110 12q-52 0 -109 -12q-10 121 -39.5 272.5t-64.5 310.5q-29 37 -83 103.5t-121 149.5t-138.5 172t-138 170t-120 144.5t-79.5 96.5z" />
<glyph unicode="Z" horiz-adv-x="1247" d="M-31 1405q98 -8 319.5 -10t536.5 -2q41 0 84 2t84 6q12 0 28.5 1t27.5 1l10 -49q-31 -43 -82 -138.5t-111.5 -215t-126 -255t-124 -259.5t-102.5 -224t-64 -153q43 -4 79.5 -4.5t71.5 -0.5q78 0 179.5 3.5t203.5 8.5t192.5 12t145.5 15q0 -27 -1 -46t3 -31q6 -27 31 -76 q-147 4 -262 7t-230 3q-78 0 -179 -1t-198.5 -2t-178.5 -3t-118 -4l-10 49q55 109 117.5 232.5t123 248.5t118 246t105.5 223.5t84 179t52 117.5q-33 2 -63.5 2h-59.5q-72 0 -160.5 -2t-179 -7t-173.5 -11t-142 -13v41.5t-2 34.5q-4 16 -11 33.5t-18 40.5z" />
<glyph unicode="[" horiz-adv-x="423" d="M-98 1401q33 -4 61.5 -6t50.5 -2q47 0 110.5 2t106.5 4l23 -4q-4 -20 0 -33q2 -8 6 -19.5t8 -21.5q-43 2 -91 3t-95 1q18 -123 39.5 -246t48.5 -248l109 -507q27 -127 56.5 -248t63.5 -246q47 0 96.5 1t90.5 3q-2 -12 -1 -22.5t3 -18.5q0 -4 14 -37h-20q-23 0 -50.5 1 t-58.5 2t-59.5 2t-53.5 1q-27 0 -54 -2t-56 -6q-23 137 -51.5 282.5t-57.5 287.5l-108 507q-29 141 -62.5 287t-68.5 283z" />
<glyph unicode="\" horiz-adv-x="686" d="M-168 1448q29 -8 47.5 -13t28.5 -5t24.5 4t32.5 10l887 -1499q-29 8 -47.5 13t-28.5 5t-24.5 -4t-32.5 -10z" />
<glyph unicode="]" horiz-adv-x="428" d="M-178 1399h20q43 -2 107.5 -4t111.5 -2q27 0 54.5 2t56.5 6q23 -137 51.5 -282.5t57.5 -287.5l108 -507q29 -141 63.5 -287t69.5 -283q-33 4 -60.5 6t-53.5 2q-47 0 -111 -2t-107 -4l-24 4q2 12 2 21.5v11.5q-2 8 -6 18.5t-8 22.5q43 -2 91 -3t95 -1q-18 123 -39.5 246 t-48.5 248l-109 507q-27 127 -56.5 248t-63.5 246q-47 0 -95.5 -1t-89.5 -3v21.5t-2 19.5q0 2 -5 12t-9 25z" />
<glyph unicode="^" horiz-adv-x="1136" d="M123 410l289 936h114l682 -936h-125l-589 809q-59 -201 -123 -405t-123 -404h-125z" />
<glyph unicode="_" horiz-adv-x="1202" d="M72 -141h1028l26 -121h-1028z" />
<glyph unicode="`" horiz-adv-x="581" d="M25 1438q0 31 20.5 46t40.5 15q25 0 53.5 -14.5t55.5 -36.5l385 -320h-113l-342 193q-31 16 -65.5 43t-34.5 74z" />
<glyph unicode="a" horiz-adv-x="974" d="M59 872q82 72 155 97.5t155 25.5q76 0 142.5 -22.5t119.5 -62.5t90 -97t51 -127q25 -113 44.5 -227.5t47.5 -243.5q6 -23 12.5 -47.5t16.5 -45t27.5 -33.5t42.5 -13q10 0 21 2t28 12l14 -67q-23 -10 -55.5 -20.5t-77.5 -10.5q-63 0 -105.5 32.5t-64.5 77.5 q-55 -68 -116.5 -100.5t-164.5 -32.5q-53 0 -107 18.5t-100.5 52.5t-80 81t-45.5 106q-9 39 -9 73q0 75 44 124q64 70 196 90q102 16 159.5 28.5t83 27t27.5 31.5t-4 44q-10 49 -30.5 93t-53.5 78t-78 54.5t-102 20.5q-78 0 -138.5 -36t-82.5 -101h-37zM289 256 q18 -90 79.5 -136t125.5 -46q74 0 125 41t73 94l-53 287q-23 -6 -46.5 -11.5t-51.5 -11.5q-49 -10 -99.5 -22.5t-88.5 -36.5q-37 -23 -57 -60q-12 -22 -12 -53q0 -21 5 -45z" />
<glyph unicode="b" horiz-adv-x="1038" d="M-88 1540q57 -12 104 -12q41 0 109 12q2 -43 16.5 -128t34 -188.5t41 -213t41.5 -203.5q94 188 293 188q106 0 194.5 -40t154 -106.5t110.5 -154.5t65 -184q15 -72 15 -138q0 -41 -6 -78q-16 -99 -62.5 -172t-123.5 -113t-177 -40q-96 0 -183 44t-143 100 q-29 -27 -54.5 -54.5t-49.5 -58.5h-51q-6 47 -17.5 116.5t-27 149.5t-33 162t-31.5 154l-76 364q-14 68 -31.5 149t-37 160.5t-38 153.5t-36.5 131zM303 657q-1 -15 -1 -32q0 -74 22 -174q84 -395 368 -396q59 0 104.5 33t70 93.5t27.5 145.5v20q0 77 -20 169 q-18 92 -56 162t-84 118t-99 71.5t-103 23.5q-61 0 -111 -22.5t-81 -75t-37 -136.5z" />
<glyph unicode="c" horiz-adv-x="991" d="M61 712q25 96 84.5 160t147.5 93.5t186 29.5q113 0 211 -29.5t148 -66.5q-8 -35 -13.5 -70.5t-5.5 -74.5h-26q-20 25 -50 53.5t-68 51t-82 37.5t-89 15q-88 0 -144.5 -32.5t-84 -90t-29.5 -135.5v-16q0 -71 16 -152q43 -205 152.5 -308t273.5 -103q78 0 154 43t116 106 l27 -16q2 -31 3 -59.5t5 -51.5q-53 -49 -137 -88t-180 -39q-90 0 -185.5 29t-180.5 90.5t-150.5 158.5t-96.5 236q-14 69 -14 128q0 55 12 101z" />
<glyph unicode="d" horiz-adv-x="1036" d="M64 706q20 98 69 162t122 95.5t153 31.5q209 0 340 -168q-20 92 -42 192.5t-42.5 196t-40 180.5t-35.5 146q8 -2 21.5 -4t19.5 -4q16 -4 33.5 -5t27.5 -1q27 0 58 6q8 2 21 3t24 3q6 -68 27.5 -193.5t50 -274t60.5 -303.5t60 -284q20 -94 38 -171.5t36 -155.5 q8 -39 18.5 -85t18.5 -87q-8 2 -21.5 4t-19.5 4l-55 6q-23 0 -43 -6q-20 -4 -37 -8l-33 170q-14 -31 -38 -65t-58.5 -60.5t-83.5 -44t-113 -17.5q-78 0 -160 30t-153.5 91.5t-129 157.5t-85.5 229q-16 76 -16 141q0 47 8 88zM255 631q1 -78 19 -166q25 -119 65 -195.5 t88 -122t100.5 -63.5t99.5 -18q76 0 123 37.5t69.5 99t22.5 140.5t-17 159q-41 188 -134 288.5t-234 100.5q-72 0 -116 -33q-43 -33 -65 -91q-21 -55 -21 -129v-7z" />
<glyph unicode="e" horiz-adv-x="1015" d="M46 680q10 100 55.5 170t124.5 107.5t194 37.5q109 0 195.5 -33.5t152.5 -91t109 -134.5t61 -163q4 -20 8 -44.5t6 -43.5q-37 0 -79 1t-78 1q-72 2 -143.5 3.5t-143.5 1.5q-45 0 -87 -1.5t-87 -3.5q-23 0 -40.5 -1t-39.5 -1q2 -4 1 -8t1 -8q2 -8 4 -15.5t4 -15.5 q16 -78 52 -144.5t90.5 -115.5t123 -76.5t150.5 -27.5q78 0 153.5 43t116.5 106l25 -14l10 -113q-53 -49 -137 -88t-180 -39q-111 0 -211.5 37t-181 102.5t-136 155t-78.5 191.5q-18 88 -18 164q0 31 3 61zM238 694q-2 -23 -3 -45q0 -34 5 -67q16 0 33.5 -1t33.5 -1 q47 -2 94.5 -3.5t92.5 -1.5q47 0 93 1.5t93 3.5q20 0 34.5 1t35.5 1q-12 51 -34 109.5t-58.5 107.5t-89 80.5t-126.5 31.5q-72 0 -114.5 -31.5t-64 -79.5t-25.5 -106z" />
<glyph unicode="f" horiz-adv-x="618" d="M-29 965q18 0 43 -1t41 -1h62q-12 61 -13 129q-1 10 -1 19q0 59 9 115q9 66 29.5 124.5t51.5 99.5q29 39 81 66.5t111 27.5q10 0 24.5 -2t28.5 -6q4 -20 6 -38.5t5 -35.5q4 -23 9 -51.5t9 -48.5l-23 -10q-55 28 -110 28h-4q-41 0 -67.5 -16t-40 -42t-14.5 -60v-8 q0 -31 7 -64q6 -35 26.5 -100.5t43.5 -126.5h94q27 0 59.5 1t57.5 1q0 -33 4 -50q4 -23 16 -51q-16 0 -39.5 1t-40.5 1q-35 2 -64.5 3t-64.5 1q47 -219 94.5 -439t100.5 -443q-55 12 -101 12q-45 0 -96 -12q-35 223 -78 441t-90 441q-23 0 -43 -1t-43 -3q-12 0 -30.5 -1 t-28.5 -1q-2 14 -2 27.5t-2 23.5q-2 6 -7.5 19.5t-9.5 30.5z" />
<glyph unicode="g" horiz-adv-x="1038" d="M2 655q-9 43 -9 80.5t9 70.5q18 64 62.5 106t112 62.5t147.5 20.5q27 0 52 -1t54 -3q14 -2 28.5 -2t30.5 -2q6 0 16.5 -1t16.5 -1q74 -6 111 -6q59 0 102 4t72 10q0 -37 6 -57q2 -8 6 -22.5t10 -30.5q-16 2 -38.5 4t-38.5 4q-66 6 -136 6q63 -41 108.5 -107.5 t61.5 -138.5q9 -44 9 -82q0 -99 -61 -162q-85 -88 -261 -88q-14 0 -29.5 1.5t-27.5 1.5q-14 2 -27.5 2h-28.5q-35 0 -56 -25t-13 -59q10 -47 36.5 -68.5t90.5 -24.5q29 -2 56.5 -3t55.5 -1q29 -2 55.5 -2h55.5q96 -2 168 -23.5t123 -57t80.5 -84t42.5 -103.5q8 -40 8 -81 q0 -33 -5 -66q-11 -74 -57.5 -134.5t-131.5 -99.5t-216 -39q-199 0 -332 80t-163 221q-6 30 -6 57q0 19 3 37q7 43 26.5 77t49 58.5t64.5 41.5q-115 45 -139 161q-4 19 -4 36q0 39 20 72q27 46 70 64q-94 45 -155.5 118t-84.5 179zM180 655q25 -119 92.5 -191.5t180.5 -72.5 q55 0 90 22.5t53 60.5t20 88v17q0 43 -8 87q-27 121 -99.5 186.5t-166.5 65.5q-104 0 -146 -72q-26 -44 -26 -107q0 -39 10 -84zM303 -223q29 -133 122 -189.5t216 -56.5q59 0 112.5 15.5t91.5 46t55 78.5q9 26 9 58q0 26 -6 56q-25 113 -104.5 164t-235.5 51 q-145 0 -216 -51q-51 -37 -51 -111q0 -28 7 -61z" />
<glyph unicode="h" horiz-adv-x="942" d="M-84 1540q57 -12 102 -12q51 0 101 12q8 -57 20.5 -132t27.5 -153.5t30.5 -156.5t29.5 -142l29 -120q41 76 107.5 117.5t168.5 41.5q57 0 121 -16t120 -56t102.5 -111t68.5 -177q18 -92 33.5 -183.5t38.5 -191.5q14 -66 29.5 -136.5t31.5 -135.5q-29 6 -51 9t-45 3 q-43 0 -92 -12l-31 176q-12 72 -24.5 142.5t-28.5 144.5l-27 122q-31 145 -103.5 221t-168.5 76q-137 0 -181 -84q-25 -49 -25 -120q0 -52 13 -117q12 -55 27.5 -129t34 -150.5t38 -150.5t36.5 -131q-55 12 -105 12q-49 0 -100 -12q-6 57 -18.5 132t-28 154.5t-31.5 159.5 t-31 148l-76 364q-14 68 -31.5 149t-37 160.5t-38 153.5t-36.5 131z" />
<glyph unicode="i" horiz-adv-x="321" d="M-82 1317q-3 13 -3 25q1 31 19 55q26 33 72 33q47 0 86 -33t49 -80q3 -13 3 -25q0 -31 -18 -55q-26 -33 -73 -33t-86 33t-49 80zM0 977q55 -12 104 -12q51 0 101 12q10 -98 27.5 -199.5t35.5 -189.5l45 -211q18 -88 44 -189.5t57 -199.5q-55 12 -105 12q-51 0 -100 -12 q-10 98 -27.5 199.5t-36.5 189.5l-45 211q-18 88 -43.5 189.5t-56.5 199.5z" />
<glyph unicode="j" horiz-adv-x="503" d="M33 1317q-3 13 -3 25q0 31 18 55q26 33 73 33t88 -33t51 -80q3 -13 3 -25q0 -31 -19 -55q-27 -33 -74 -33t-87 33t-50 80zM115 977q57 -12 106 -12q47 0 101 12q10 -98 28.5 -199.5t36.5 -189.5l45 -211q12 -59 28.5 -127t33.5 -139q18 -72 35.5 -138.5t29.5 -126.5 q18 -86 25 -158q1 -12 1 -23q0 -61 -30 -122q-31 -66 -101.5 -109.5t-174.5 -47.5l-33 94q12 -4 24.5 -6t18.5 -2q55 0 81.5 33.5t33.5 86.5q4 24 4 52q0 31 -4 66q-9 65 -23 130l-148 666q-25 119 -55.5 246t-62.5 225z" />
<glyph unicode="k" horiz-adv-x="966" d="M-113 1540q57 -12 105 -12q47 0 100 12q6 -57 18.5 -132t28 -154.5t30.5 -159.5t30 -148l77 -366q6 -29 21 -29q10 0 21.5 9t27.5 24q6 2 6 6q16 14 51 55t78 96.5t89 118t83 117.5q39 -12 82 -12q16 0 34.5 2t45.5 6q4 0 23.5 1t23.5 1q-111 -109 -208 -211t-181 -205 q143 -139 305 -286.5t316 -286.5q-53 6 -87 10t-57 4q-47 0 -104 -12q-59 59 -130 128.5t-142.5 137.5t-135 126t-106.5 95q-16 16 -25 17q-10 0 -8 -15l27 -121q18 -88 40.5 -178t55.5 -190q-59 12 -107 12q-49 0 -100 -12q-6 57 -18.5 132t-27.5 154.5t-31.5 159.5 t-31.5 148l-77 364q-14 68 -31.5 149t-36 160.5t-38 153.5t-36.5 131z" />
<glyph unicode="l" horiz-adv-x="342" d="M-98 1540q55 -12 102 -12q51 0 100 12q6 -57 18.5 -132t28 -154.5t32 -159.5t30.5 -148l76 -364q14 -68 32.5 -149t37 -160.5t38 -153.5t37.5 -131q-55 12 -104 12q-51 0 -101 -12q-6 57 -18 132t-27.5 154.5t-32 159.5t-30.5 148l-76 364q-14 68 -31.5 149t-37 160.5 t-38 153.5t-36.5 131z" />
<glyph unicode="m" horiz-adv-x="1591" d="M-18 977q55 -12 102 -12q39 0 92 12q4 -33 9 -62.5t10 -56.5q4 -16 6 -22q74 159 256 159h2q49 0 98 -14t94 -38.5t83 -58.5t65 -75q31 88 104.5 137t175.5 49q68 0 130.5 -18.5t113.5 -57t89 -102t56 -151.5q8 -35 14.5 -75t15.5 -92.5t22.5 -121t31.5 -158.5 q10 -53 23.5 -110.5t32.5 -120.5q-55 12 -99 12q-51 0 -100 -12q-8 63 -33.5 222t-83.5 429q-10 49 -28.5 91t-49 73t-72.5 49t-100 18q-72 0 -113.5 -27.5t-60.5 -62.5q-10 -20 -15 -42q-2 -11 -2.5 -28.5t2.5 -40.5q5 -46 20.5 -128t44.5 -219q18 -88 37.5 -164t43.5 -170 q-55 12 -100 12q-49 0 -98 -12q-16 115 -37 237.5t-43 233.5q-20 94 -32.5 148.5t-23 86t-21.5 50t-28 40.5q-29 35 -80 60.5t-98 25.5q-127 0 -170 -84q-24 -46 -24 -114q0 -55 16 -123l35 -172q20 -88 45 -189.5t57 -199.5q-59 12 -106 12q-49 0 -101 -12 q-10 98 -27.5 199.5t-37.5 189.5l-43 211q-20 88 -45 189.5t-55 199.5z" />
<glyph unicode="n" horiz-adv-x="991" d="M-27 977q55 -12 103 -12q39 0 92 12q4 -33 9 -63.5t11 -57.5q2 -6 2 -12t3 -10q39 78 106.5 119.5t171.5 41.5q57 0 120.5 -16t120 -56t102.5 -111t69 -177q18 -92 33.5 -183.5t37.5 -191.5q14 -66 29.5 -136.5t32.5 -135.5q-29 6 -51.5 9t-44.5 3q-43 0 -93 -12l-30 176 q-12 72 -24.5 142.5t-29.5 144.5l-26 122q-31 145 -103.5 221t-169.5 76q-137 0 -182 -84q-25 -47 -25 -116q0 -54 15 -121l35 -172q20 -88 44.5 -189.5t55.5 -199.5q-55 12 -104 12t-101 -12q-10 98 -27.5 199.5t-37.5 189.5l-43 211q-20 88 -45 189.5t-56 199.5z" />
<glyph unicode="o" horiz-adv-x="1124" d="M53 722q25 98 83.5 158t141 87.5t173.5 27.5q88 0 184 -27.5t180 -88t149.5 -157.5t96.5 -239q17 -78 17 -143q0 -52 -11 -96q-25 -98 -83 -158.5t-142 -88.5t-172 -28q-90 0 -185.5 28t-180.5 88t-150.5 158.5t-96.5 239.5q-16 76 -16 139q0 55 12 100zM239 642 q1 -77 17 -159q18 -84 50 -160.5t80 -136t113.5 -95.5t151.5 -36t137 36q50 35 72 95q22 57 22 130v6q-1 76 -20 161q-16 82 -48 159t-80 137.5t-113.5 96t-151.5 35.5t-136 -35q-51 -36 -73 -96q-22 -58 -21 -131v-7z" />
<glyph unicode="p" horiz-adv-x="1040" d="M-82 977q57 -12 107 -12q45 0 98 12q6 -96 20 -172q12 33 34 66.5t56.5 61.5t85 45t119.5 17q78 0 160 -29.5t154.5 -91t129 -157.5t85.5 -228q16 -77 16 -142q0 -47 -8 -87q-19 -98 -68 -162.5t-122.5 -96.5t-153.5 -32q-104 0 -190.5 44t-157.5 128l20 -90 q14 -68 31.5 -148.5t36 -160.5t38 -153.5t37.5 -131.5q-59 12 -104 13q-51 0 -102 -13q-6 57 -18.5 132t-28 155l-31 160t-29.5 147l-70 326q-14 68 -31.5 147.5t-37 160.5t-38.5 157t-38 135zM194 635q1 -76 19 -160q86 -409 370 -409h1q70 0 114.5 32.5t66 90t21.5 135.5 t-18 168q-25 117 -65.5 194.5t-89 122.5t-100.5 63.5t-99 18.5q-80 0 -128 -34t-70 -90q-22 -54 -22 -126v-6z" />
<glyph unicode="q" horiz-adv-x="1038" d="M-50 710q19 97 68.5 160.5t120 94t146.5 30.5q127 0 214 -49t146 -131q-10 37 -23.5 78t-29.5 84q57 -12 106 -12q47 0 101 12q8 -59 20 -135t27.5 -157t32 -161t30.5 -147l70 -326q14 -68 31.5 -148.5t36 -160.5t38 -153.5t37.5 -131.5q-59 12 -106 13q-49 0 -101 -13 q-6 57 -18 132t-27.5 155l-31 160t-29.5 147l-29 113q-39 -98 -112.5 -146.5t-165.5 -48.5q-76 0 -159 25.5t-157.5 86t-134 158t-90.5 238.5q-18 82 -18 151q0 44 7 82zM142 673q-2 -19 -2 -40q0 -72 22 -172q18 -84 49 -157t75 -126t99 -82.5t121 -29.5q74 0 122 37.5 t72.5 99t26.5 139.5v17q0 70 -14 143q-16 76 -47 145.5t-76 123.5t-105.5 87t-136.5 33q-47 0 -93 -18.5t-75.5 -67.5t-37.5 -132z" />
<glyph unicode="r" horiz-adv-x="595" d="M-25 977q55 -12 95 -12q18 0 41.5 4t48.5 10q6 -53 12 -91t12 -67q4 -16 4 -22q37 98 93.5 147t124.5 49q20 0 36.5 -3t44.5 -13q-4 -16 -4 -36q1 -21 5 -48q8 -51 18 -92l-25 -15q-14 10 -43.5 21.5t-58.5 11.5q-47 0 -79 -20.5t-48 -56.5t-20 -86q-1 -10 0 -22 q0 -40 10 -85q27 -129 46 -217t33.5 -151.5t25.5 -108.5t24 -88q-29 6 -53.5 10t-43.5 4q-41 0 -92 -12q-12 92 -36.5 210.5t-59.5 284.5l-12 64q-16 78 -41 188.5t-58 241.5z" />
<glyph unicode="s" horiz-adv-x="755" d="M27 680q-8 40 -8 76q-1 87 49 150q70 89 237 89q59 0 104.5 -13t84.5 -28q16 -6 31.5 -11t33.5 -9q-6 -16 -11 -39t-8 -45.5t-4 -42t-1 -31.5h-39q-27 47 -80.5 86t-116.5 39q-29 0 -55.5 -9t-46 -28.5t-27.5 -50.5q-4 -14 -3 -30q0 -20 5 -42q8 -43 31.5 -70.5t56.5 -47 t73 -32.5t83 -26q51 -14 103 -30.5t96 -45t78 -74.5t48 -116q6 -28 6 -57q0 -30 -7 -60q-13 -58 -51 -105.5t-101.5 -77.5t-149.5 -30q-92 0 -164.5 23.5t-126.5 52.5q9 29 13 78q2 18 1 33q0 28 -5 49h39q14 -20 39.5 -45t59.5 -45.5t74 -34.5t81 -14q35 0 66.5 10t53 31.5 t29.5 53.5q4 16 4 34.5t-4 40.5q-8 41 -30.5 67.5t-54.5 45t-72 31.5t-83 26q-53 14 -105 32.5t-97 48t-80 75.5t-49 118z" />
<glyph unicode="t" horiz-adv-x="579" d="M-55 954q88 -6 135 -6q-4 14 -7 27.5t-7 30.5q-10 35 -20.5 82t-20.5 86l157 71h25q10 -76 22.5 -149.5t24.5 -149.5q27 0 88 1t127 5q0 -20 2 -30.5t4 -20.5t4 -20.5t10 -32.5q-27 2 -57.5 3t-60 1h-55h-44.5q2 -23 12.5 -81t25 -132t29.5 -151.5t28 -137.5 q12 -55 26.5 -108.5t38 -94.5t60 -66.5t92.5 -25.5q16 0 44.5 5.5t51.5 11.5l14 -70q-35 -14 -75.5 -23.5t-81.5 -9.5q-131 0 -210 70t-106 192q-2 6 -7 39t-12 71t-13.5 71.5t-8.5 42.5q-14 82 -32.5 176t-43.5 221h-137q-2 16 -2 30.5t-4 22.5q0 2 -5 17.5t-11 31.5z" />
<glyph unicode="u" horiz-adv-x="993" d="M-27 977q51 -12 95 -12q43 0 92 12q16 -119 42.5 -271.5t59.5 -302.5q23 -102 51.5 -155t57.5 -82q35 -31 81 -51.5t101 -20.5q78 0 126 37t62 86q9 31 11 57q1 9 0 21q0 21 -2 48q-4 42 -17.5 109.5t-38.5 182.5q-18 82 -38.5 176t-39.5 166q55 -12 99 -12q47 0 90 12 q25 -158 54.5 -311.5t64.5 -313.5q20 -92 41.5 -185t44.5 -179q-49 12 -90 12q-16 0 -40 -4t-51 -10q-6 35 -11 63.5t-9 54.5q-4 10 -5 18.5t-3 18.5q-37 -78 -108.5 -125t-162.5 -47q-162 0 -273 89t-146 253q-12 57 -20.5 105.5t-16.5 89.5q-6 37 -13.5 70.5t-13.5 68.5 q-16 72 -34.5 159t-39.5 173z" />
<glyph unicode="v" horiz-adv-x="1005" d="M-82 979q39 -6 69.5 -10t53.5 -4q39 0 92 12q104 -201 219 -391.5t242 -384.5q18 63 33.5 143t31 167t28.5 177t26 178q4 27 8 56.5t8 54.5q39 -12 72 -12q29 0 78 16q-8 -33 -17.5 -75t-17.5 -75q-49 -211 -96.5 -421.5t-75.5 -421.5q-41 12 -72 12q-27 0 -61 -10l-13 6 q-10 18 -20 35.5t-21 36.5q-131 219 -276.5 455.5t-290.5 455.5z" />
<glyph unicode="w" horiz-adv-x="1626" d="M-57 979q35 -6 64.5 -10t51.5 -4q43 0 97 12q90 -188 192.5 -373.5t218.5 -384.5q12 63 26.5 157.5t29 198t25.5 209t18 193.5q39 -12 71 -12q29 0 60 12q88 -182 185 -357.5t204 -357.5l22 -41q12 68 26.5 161t30 195.5t32 206t28.5 193.5q43 -12 76 -12q14 0 34.5 5 t43.5 13q-66 -254 -117 -499.5t-86 -493.5q-4 0 -10 1t-11 1q-12 4 -22 6t-21 2q-12 0 -27.5 -4t-29.5 -8q-86 174 -185.5 353t-221.5 380q-12 -63 -26.5 -152.5t-29 -188.5t-27 -200.5t-20.5 -189.5q-4 0 -11 1t-11 1q-12 4 -23.5 6t-21.5 2t-19.5 -2t-19.5 -6 q-4 0 -7.5 -1t-7.5 -1l-12 8q-39 78 -103.5 193.5t-142.5 248.5t-162 273.5t-161 265.5z" />
<glyph unicode="x" horiz-adv-x="1058" d="M-51 979q39 -6 71.5 -10t59.5 -4q44 0 110 12q78 -94 160 -187.5t172 -185.5q49 92 99.5 185.5t95.5 187.5q45 -12 76 -12q14 0 37.5 5t56.5 13q-72 -111 -147.5 -227.5t-143.5 -227.5q121 -131 254 -271t264 -271q-39 6 -72.5 10t-58.5 4q-43 0 -104 -12 q-90 104 -178.5 203.5t-186.5 203.5q-47 -98 -99.5 -203.5t-95.5 -203.5q-43 12 -73 12q-16 0 -41 -5t-53 -13q72 119 146.5 245.5t139.5 245.5q-117 123 -241.5 253t-247.5 253z" />
<glyph unicode="y" horiz-adv-x="997" d="M-123 979q35 -6 64.5 -10t52.5 -4q41 0 96 12q92 -174 199.5 -350t220.5 -357q8 -14 17.5 -27.5t19.5 -25.5q41 172 73.5 369.5t55.5 390.5q39 -12 76 -12q27 0 82 16q-8 -29 -25.5 -97.5t-41.5 -164.5t-52.5 -212t-57 -239t-55.5 -245.5t-49.5 -230t-37.5 -196 t-21 -139.5q-41 12 -76 13q-33 -1 -88 -17q55 141 96 276.5t68 268.5q-37 61 -90.5 148t-115 185.5t-126 200t-120.5 190.5t-100 156.5t-65 100.5z" />
<glyph unicode="z" horiz-adv-x="995" d="M39 977q80 -8 209 -10t313 -2h81t67.5 2t60.5 3t61 5l11 -43q-59 -106 -128 -230t-133.5 -242t-116.5 -215.5t-79 -150.5q76 0 142.5 1t137 4t151.5 9.5t190 16.5v-17q0 -26 4 -51q4 -14 9 -32.5t15 -34.5q-31 0 -67.5 1t-71.5 3q-92 4 -189.5 5t-189.5 1q-135 0 -270 -6 q-18 -2 -46 -3t-50 -1l-11 43q55 88 111.5 187t111 198.5t103.5 194t90 171.5q16 25 25.5 44.5t21.5 41.5q-33 -2 -100.5 -5t-146.5 -8t-155.5 -10t-129.5 -9q0 35 -7 69q-4 16 -9 31.5t-15 38.5z" />
<glyph unicode="{" horiz-adv-x="497" d="M0 631q72 0 98.5 49t7.5 129l-71 344q-14 72 -12 119t19 75.5t49 40t77 11.5h127l20 -94h-73q-49 0 -65.5 -29t3.5 -123l70 -332q20 -92 -13.5 -151.5t-93.5 -94.5q84 -33 136.5 -88t74.5 -153l70 -332q10 -47 21.5 -76.5t26.5 -46t34.5 -23t44.5 -6.5h74l20 -94h-127 q-90 0 -149.5 51.5t-89.5 194.5l-72 344q-18 80 -66.5 129t-120.5 49z" />
<glyph unicode="|" horiz-adv-x="294" d="M-137 1534h127l430 -2038h-127z" />
<glyph unicode="}" horiz-adv-x="497" d="M-150 1399h127q88 0 147.5 -51.5t90.5 -194.5l72 -344q18 -80 66 -129t120 -49l23 -107q-72 0 -99.5 -49t-9.5 -129l72 -344q14 -72 12 -119t-19.5 -75.5t-49 -40t-76.5 -11.5h-127l-21 94h74q25 0 41 6.5t24.5 23t7.5 46t-12 76.5l-69 332q-20 92 13.5 151.5t92.5 94.5 q-84 33 -136 88t-75 153l-69 332q-20 94 -49 123t-76 29h-74z" />
<glyph unicode="~" horiz-adv-x="1064" d="M68 475q33 82 79 129t142 47q66 0 111.5 -14t93.5 -35q70 -29 130 -58.5t124 -29.5q29 0 52 15.5t42.5 39t34 52t22.5 53.5l94 -103q-16 -31 -34.5 -63.5t-45 -59t-60.5 -43t-79 -16.5q-57 0 -116.5 21.5t-135.5 56.5q-57 27 -105 43t-89 16q-43 0 -72 -15t-47.5 -40 t-27.5 -53.5t-15 -55.5z" />
<glyph unicode="&#xa1;" horiz-adv-x="358" d="M-76 870q-10 51 17.5 88t78.5 37q53 0 97.5 -36.5t54.5 -88.5q10 -53 -17.5 -89t-80.5 -36t-96.5 36t-53.5 89zM68 627h61q16 -57 36.5 -122t37.5 -126q18 -59 40.5 -134t45 -154t45 -155.5t40 -138t29 -101.5t13.5 -46q12 -59 -15.5 -84t-70.5 -25t-81 24.5t-50 84.5 q-4 14 -13.5 82.5t-22.5 171t-29.5 226.5t-33.5 249q-8 59 -16 125.5t-16 122.5z" />
<glyph unicode="&#xa2;" horiz-adv-x="983" d="M51 692q17 90 63 151.5t117.5 97.5t155.5 48v6q-10 41 -24.5 97.5t-32.5 113.5q49 -16 67 -16t62 16q4 -57 12 -111.5t18 -97.5l3 -2q111 -4 200.5 -31.5t141.5 -64.5q-10 -35 -15.5 -70.5t-3.5 -74.5h-27q-18 25 -47.5 51t-66.5 49t-79 38t-87 19q47 -211 92 -417.5 t92 -419.5q76 2 148.5 46t113.5 103l25 -16q4 -31 5 -59.5t5 -51.5q-47 -45 -120.5 -80.5t-159.5 -42.5v-6q10 -43 26.5 -104.5t32.5 -116.5q-49 16 -68 16q-18 0 -61 -16q-4 49 -14.5 114.5t-20.5 108.5l-2 6q-84 8 -170 42t-159.5 95.5t-130 152.5t-83.5 218 q-25 119 -8 209zM239 631.5q1 -68.5 17 -146.5q74 -346 324 -399l-174 815q-61 -16 -98.5 -54t-53.5 -92.5t-15 -123z" />
<glyph unicode="&#xa3;" horiz-adv-x="1038" d="M94 778q41 -10 89 -12t100 -2q-10 31 -19.5 64.5t-15.5 62.5q-31 141 -11.5 235.5t68.5 149.5t119 77.5t139 22.5q76 0 160 -27.5t139 -88.5q-29 -43 -61 -127l-23 16q-31 66 -83 99.5t-111 33.5q-104 0 -152.5 -76t-25.5 -186q14 -63 27 -113.5t26 -97.5q4 -10 6 -22.5 t6 -22.5q66 0 116 1t99 5q18 2 46 2t50 2q0 -33 4 -53q2 -2 7.5 -19.5t11.5 -37.5h-33q-72 2 -134.5 3t-135.5 1q4 -16 9 -38t9 -44q33 -150 4.5 -262.5t-90.5 -180.5q125 2 260 6.5t254 10.5q33 2 73 3t73 3q2 -59 12 -92q4 -16 9 -39t15 -45q-29 0 -64.5 1t-64.5 3 q-88 4 -181 5t-179 1q-172 0 -344 -6q-27 -2 -63.5 -3t-63.5 -1q-4 45 -10 76q-4 23 -9.5 40t-9.5 33h39q84 0 131 23.5t66.5 66.5t16.5 103.5t-17 134.5q-10 47 -25.5 98t-32.5 97l-2 6q-49 -2 -101 -3t-99 -1q2 25 1 36t-5 21q-2 10 -5.5 22.5t-13.5 34.5z" />
<glyph unicode="&#xa4;" horiz-adv-x="1175" d="M-16 1102l65 88l139 -115q55 49 130 79t161 30t172 -29t162 -80l88 115l107 -90l-88 -115q66 -61 112.5 -143t65.5 -170q16 -86 6 -166t-47 -146l131 -108l-68 -92l-137 110q-53 -49 -127 -78.5t-160 -29.5t-175 30.5t-163 79.5q-23 -29 -46 -57.5t-44 -54.5l-108 92 l88 113q-63 66 -108.5 143.5t-61.5 163.5q-20 90 -10 170t49 143q-35 29 -70 59.5t-63 57.5zM198.5 826.5q-14.5 -72.5 4.5 -154.5q16 -82 61 -154t108.5 -126t140.5 -85t159 -31t145.5 31t103.5 85t54 126t-2 154q-18 82 -63.5 154.5t-109 126t-140 85t-158.5 31.5 t-145.5 -31.5t-103.5 -85t-54.5 -126z" />
<glyph unicode="&#xa5;" horiz-adv-x="1124" d="M-129 1407q39 -6 71.5 -10t57.5 -4q45 0 111 12q25 -41 77 -110.5t116.5 -150.5t133 -167t127.5 -158q66 152 124.5 299.5t103.5 286.5q43 -12 75 -12q16 0 40 5t53 13q-29 -53 -63 -119.5t-70.5 -143.5t-73.5 -158t-74 -161q-8 -20 -14.5 -32.5t-16.5 -32.5q84 0 163 1 t159 3q2 -16 3 -30.5t3 -22.5t6 -22.5t10 -30.5q-29 0 -64.5 1t-64.5 1q-59 2 -111.5 3t-111.5 1l33 -156h176t176 2q0 -31 4 -51q2 -8 6 -22.5t11 -30.5q-88 4 -176.5 6t-176.5 2q23 -113 48.5 -223.5t54.5 -206.5q-55 12 -105 12q-49 0 -100 -12q-16 109 -34.5 215 t-41.5 215q-86 0 -174 -2t-174 -6q-2 16 -2 30.5t-2 22.5t-7 21.5t-10 29.5q86 -2 174.5 -2h174.5l-33 156q-57 0 -110.5 -1t-110.5 -3q-29 0 -64 -1t-63 -1q-2 16 -2 30.5t-2 22.5t-7.5 22.5t-11.5 30.5q82 -2 162 -3t162 -1q-45 51 -90 103.5t-88 103.5 q-88 104 -182.5 218t-184.5 218z" />
<glyph unicode="&#xa6;" horiz-adv-x="266" d="M-106 1382h124l156 -727h-127zM106 373h127l156 -727h-127z" />
<glyph unicode="&#xa7;" horiz-adv-x="894" d="M27 1214.5q10 61.5 46 109.5t99.5 77t155.5 29q102 0 180 -42t131 -92q-16 -20 -29.5 -57t-9.5 -72h-41q-14 33 -38.5 63t-55.5 53.5t-69 37.5t-77 14q-41 0 -76.5 -13t-61 -37.5t-37 -60.5t-1.5 -81q10 -49 40 -86t73 -63.5t94 -48t107 -40.5q63 -25 125.5 -50.5 t115 -60t91 -85t55.5 -123.5q16 -86 -6.5 -156t-51.5 -106q39 -31 68 -74t41 -107q16 -78 4 -149.5t-55 -127.5t-118 -90t-179 -34q-39 0 -82 7t-85 20.5t-81 30t-68 34.5q2 39 -4 93.5t-14 92.5h43q14 -25 42 -56.5t68 -60t94 -48t122 -19.5q51 0 93 19.5t69.5 52.5t38 74 t1.5 84q-10 47 -39.5 80.5t-72.5 59t-96.5 46t-108.5 41.5q-70 25 -138.5 52.5t-127 67.5t-101.5 96t-61 138q-10 49 -5 89t18.5 73t31.5 55.5t37 36.5q-16 18 -28.5 34.5t-24 38t-21.5 48.5t-18 65q-12 66 -2 127.5zM127 895l2 -2zM139 715q16 -72 76.5 -119t177.5 -94 q141 -55 221 -87t115 -57q12 25 20.5 59t-1.5 81q-8 35 -22.5 61.5t-39 48t-61.5 40t-90 40.5q-98 41 -162 67.5t-104 45t-60.5 31t-32.5 22.5q-16 -23 -31.5 -60.5t-5.5 -78.5z" />
<glyph unicode="&#xa8;" horiz-adv-x="770" d="M72 1296q-10 47 15.5 80t72.5 33t88 -33t51 -80t-17.5 -79.5t-74.5 -32.5t-86 32.5t-49 79.5zM469 1296q-10 47 16.5 80t73.5 33t87 -33t50 -80t-16.5 -79.5t-73.5 -32.5t-87 32.5t-50 79.5z" />
<glyph unicode="&#xa9;" horiz-adv-x="1587" d="M55 982q29 134 108 233.5t199.5 157t272.5 57.5t298 -57.5t267 -157t207 -233.5t119 -286t3 -286t-108 -233t-199.5 -156.5t-273.5 -57.5t-298 57.5t-266 156.5t-206 233t-119 286t-4 286zM158.5 944q-23.5 -117 5.5 -248q27 -131 100.5 -246.5t177 -202.5t228.5 -137.5 t258 -50.5q131 0 235.5 50.5t171 137.5t90 202.5t-3.5 246.5q-29 131 -102.5 248t-177 204t-229.5 137t-257 50q-133 0 -236.5 -50t-170 -137t-90 -204zM329.5 907q20.5 92 76 153.5t141.5 92.5t192 31q100 0 177 -17.5t135 -46.5q-16 -45 -7 -114l-22 -5q-16 12 -41 31 t-57.5 35t-72.5 27.5t-89 11.5q-68 0 -129.5 -18.5t-101 -65.5t-54 -127t11.5 -205q18 -84 56.5 -155.5t95.5 -124t129 -82t158 -29.5q41 0 77.5 10t68.5 26.5t56.5 36t40.5 38.5l35 -4q-6 -29 -4 -54.5t6 -42.5q-37 -27 -111.5 -57.5t-174.5 -30.5q-106 0 -202.5 33 t-174.5 94.5t-132 148t-77 195.5q-27 123 -6.5 215z" />
<glyph unicode="&#xaa;" horiz-adv-x="698" d="M70 1309q41 23 89 45t126 22q35 0 75.5 -8t78.5 -29.5t69 -60.5t43 -102q10 -41 17 -89.5t16 -93.5q6 -35 12 -63.5t10 -48.5q8 -35 20.5 -47.5t24.5 -12.5t25.5 6.5t19.5 10.5l13 -54q-16 -10 -42 -20t-57 -10q-41 0 -69.5 21.5t-42.5 53.5q-33 -35 -77 -55t-102 -20 q-35 0 -71.5 7t-69.5 25.5t-57.5 49t-34.5 77.5q-8 39 -4 68t23.5 49.5t56.5 34.5t96 25q59 12 93 19t50.5 13t18.5 13.5t0 19.5q-20 92 -64.5 118.5t-99.5 26.5q-57 0 -88 -27.5t-37 -53.5h-41zM229 926q10 -47 45 -72t76 -25t74 27t49 49l-35 168q-16 -6 -37.5 -11 t-38.5 -9q-29 -6 -55 -12.5t-46.5 -20.5t-30 -35.5t-1.5 -58.5z" />
<glyph unicode="&#xab;" horiz-adv-x="739" d="M27 479l182 395q16 -23 45 -42t63 -23l-161 -328q72 -86 145.5 -174t144.5 -170q-27 -4 -49 -23.5t-28 -41.5zM319 479l183 395q16 -23 44.5 -42t63.5 -23l-161 -328q72 -86 145.5 -174t144.5 -170q-27 -4 -49 -23.5t-28 -41.5z" />
<glyph unicode="&#xac;" horiz-adv-x="1130" d="M-57 780h1038l121 -563h-125l-94 436h-914z" />
<glyph unicode="&#xad;" d="M66 549h522l30 -146h-522z" />
<glyph unicode="&#xae;" horiz-adv-x="1587" d="M55 982q29 134 108 233.5t199.5 157t272.5 57.5t298 -57.5t267 -157t207 -233.5t119 -286t3 -286t-108 -233t-199.5 -156.5t-273.5 -57.5t-298 57.5t-266 156.5t-206 233t-119 286t-4 286zM158.5 944q-23.5 -117 5.5 -248q27 -131 100.5 -246.5t177 -202.5t228.5 -137.5 t258 -50.5q131 0 235.5 50.5t171 137.5t90 202.5t-3.5 246.5q-29 131 -102.5 248t-177 204t-229.5 137t-257 50q-133 0 -236.5 -50t-170 -137t-90 -204zM395 1171q100 -12 180 -12q20 0 39 1t41 3q18 2 40 4t42 2q55 0 106.5 -13t93.5 -39.5t70.5 -66.5t41.5 -94 q12 -61 -5.5 -106t-50 -77t-76 -50t-81.5 -25q27 -27 55.5 -56.5t60.5 -61.5q43 -45 89 -91.5t88 -88.5t79 -75.5t64 -52.5l6 -26q-49 12 -88 12t-82 -12q-195 215 -416 434h-51l29 -131q14 -68 33.5 -143.5t44.5 -161.5q-25 6 -45.5 10t-32.5 4q-16 0 -35 -4t-43 -10 q-2 16 -4 36.5t-4 36.5q-8 53 -17.5 111.5t-19.5 112.5l-74 346q-14 66 -34.5 142.5t-43.5 141.5zM563 1092q4 -43 11.5 -90.5t17.5 -90.5l33 -155q27 -6 77 -6q49 0 91.5 10t71 33.5t39.5 59.5t1 89q-16 76 -74.5 117t-136.5 41q-35 0 -67.5 -2t-63.5 -6z" />
<glyph unicode="&#xaf;" horiz-adv-x="737" d="M68 1346h571l27 -127h-572z" />
<glyph unicode="&#xb0;" horiz-adv-x="716" d="M51 1075q-12 61 0 116.5t44 96.5t82 64.5t114 23.5q63 0 123.5 -23.5t109.5 -64.5t85 -96t48 -117q14 -63 2 -118.5t-43.5 -96.5t-82 -64.5t-113.5 -23.5t-123.5 23.5t-110 64.5t-85.5 96.5t-50 118.5zM144.5 1156q-9.5 -38 0.5 -81q8 -43 34 -82t59.5 -66.5t75.5 -44 t85 -16.5q86 0 134.5 60.5t29.5 148.5q-10 43 -33.5 81t-58.5 65.5t-76 44t-84 16.5t-77.5 -16.5t-57 -44t-32 -65.5z" />
<glyph unicode="&#xb1;" horiz-adv-x="1069" d="M-16 674h454l-80 368h127l80 -368h457l27 -125h-457l78 -367h-127l-78 367h-457zM98 125h1041l24 -125h-1040z" />
<glyph unicode="&#xb2;" horiz-adv-x="690" d="M39 1247q31 70 85 99.5t138 29.5q117 0 206 -53t114 -170q10 -49 6 -93t-35 -98.5t-93.5 -130t-168.5 -190.5h205.5t199.5 4v-32.5t2 -24.5q4 -10 9.5 -25.5t17.5 -38.5q-72 4 -149.5 7.5t-149.5 3.5q-70 0 -145.5 -3.5t-143.5 -7.5l-10 47q16 20 33.5 39t29.5 35 q63 76 114.5 138.5t84.5 121t44 116.5t-3 126q-18 86 -67.5 124t-104.5 38q-39 0 -64.5 -13.5t-40 -33t-20.5 -41t-6 -39.5l-21 -4z" />
<glyph unicode="&#xb3;" horiz-adv-x="665" d="M25 1298q25 27 70.5 52.5t137.5 25.5q102 0 181.5 -45t99.5 -141q18 -82 -14.5 -131t-83.5 -74q33 -6 69.5 -19.5t68.5 -36t56.5 -57t34.5 -84.5q25 -119 -53 -192.5t-236 -73.5q-76 0 -132 14.5t-97 32.5l4 93h23q25 -23 73.5 -46.5t108.5 -23.5q92 0 133 52t25 132 q-20 94 -74.5 129t-114.5 35q-23 0 -47.5 -5t-46.5 -11q6 31 2 49q-4 10 -9 24.5t-18 36.5q31 -14 52.5 -19t35.5 -5q39 0 61.5 16t33 41t9.5 54.5t-7 58.5q-14 66 -58.5 97.5t-93.5 31.5q-47 0 -78.5 -27t-40.5 -61l-24 -2z" />
<glyph unicode="&#xb4;" horiz-adv-x="577" d="M76 1128l246 320q16 23 38.5 37t49.5 14q12 0 27.5 -6t30.5 -16.5t25.5 -27.5t10.5 -38q0 -35 -35 -71.5t-84 -73.5t-103.5 -72t-93.5 -66h-112z" />
<glyph unicode="&#xb5;" horiz-adv-x="944" d="M-74 977q27 -6 51.5 -9t42.5 -3q39 0 93 12q16 -119 42.5 -271.5t57.5 -302.5q23 -102 52.5 -155t58.5 -82q35 -31 80 -51.5t100 -20.5q78 0 126 37t64 86q6 31 9.5 57.5t-2 68.5t-18.5 109.5t-38 182.5q-16 82 -36.5 176t-39.5 166q51 -12 99 -12q25 0 46 3t44 9 q23 -158 52.5 -311.5t63.5 -313.5q20 -92 42 -185t45 -179q-49 12 -91 12q-16 0 -38.5 -4t-49.5 -10q-6 35 -11 63.5t-11 54.5q-2 10 -3 18.5t-5 18.5q-37 -78 -109 -125t-162 -47q-55 0 -99 8.5t-87 40.5q31 -143 62.5 -278t78.5 -283q-53 12 -100 13q-41 0 -92 -13 q-14 72 -27.5 141.5t-26.5 133.5q-16 84 -36.5 187.5t-42.5 207.5q-33 147 -59.5 269t-51.5 233q-8 39 -18.5 85t-19.5 92t-18.5 90t-17.5 81z" />
<glyph unicode="&#xb6;" horiz-adv-x="1015" d="M-70 1012q-41 193 47.5 287t280.5 94h539l14 -66l-147 -24l327 -1534h-94l-324 1519l-104 -18l319 -1501h-92l-174 819q-131 0 -232.5 31.5t-175 88t-119.5 134.5t-65 170z" />
<glyph unicode="&#xb7;" horiz-adv-x="374" d="M53 629q-12 53 18.5 92t84.5 39q53 0 100 -39t59 -92q10 -55 -20.5 -93t-83.5 -38t-100.5 38t-57.5 93z" />
<glyph unicode="&#xb8;" horiz-adv-x="503" d="M66 -414l16 84q29 -10 71 -19t87 -9q47 0 74.5 19.5t19.5 55.5q-8 39 -38 54.5t-69 15.5q-61 0 -84 -16l-30 22l39 227h94l-19 -141q16 4 41 4q84 0 138.5 -42t70.5 -111q8 -45 -4 -79t-42 -57.5t-72 -35t-93 -11.5q-63 0 -114.5 13.5t-85.5 25.5z" />
<glyph unicode="&#xb9;" horiz-adv-x="468" d="M-8 1249q78 27 153.5 60.5t126.5 66.5h33q10 -78 25.5 -160.5t31.5 -162.5l44 -203q16 -78 38.5 -163t44.5 -167q-27 6 -48 10.5t-38 4.5q-14 0 -33.5 -4.5t-41.5 -10.5q-12 84 -26.5 168t-31.5 162l-84 395q-35 -18 -68.5 -36.5t-64.5 -37.5q-8 12 -23.5 25.5 t-29.5 20.5z" />
<glyph unicode="&#xba;" horiz-adv-x="808" d="M68 1210.5q16 59.5 56 96t96 53t118 16.5q59 0 121.5 -16.5t118 -53t98.5 -96t61 -145.5t1 -145.5t-57 -96.5t-95.5 -53t-114.5 -16q-61 0 -124.5 16t-119 53t-97.5 96.5t-60 145.5t-2 145.5zM213 1154q0 -44 10 -89q8 -47 27.5 -90t48.5 -78t68 -55.5t90 -20.5 q49 0 78.5 20.5t43 55.5t13.5 78t-8 90q-10 45 -28.5 89t-47.5 78t-68 55.5t-88 21.5q-51 0 -80.5 -21.5t-44 -55.5t-14.5 -78z" />
<glyph unicode="&#xbb;" horiz-adv-x="741" d="M0 817q25 4 47.5 23.5t28.5 44.5l342 -408l-182 -397q-16 23 -45 42t-64 23l162 330zM291 817q27 4 49 23.5t29 44.5l342 -408l-183 -397q-16 23 -44.5 42t-63.5 23l162 330z" />
<glyph unicode="&#xbc;" horiz-adv-x="1560" d="M-78 1249q76 27 152 60.5t127 66.5h32q10 -78 25.5 -160.5t32.5 -162.5l43 -203q16 -78 38.5 -163t45.5 -167q-27 6 -47.5 10.5t-36.5 4.5t-35.5 -4.5t-42.5 -10.5q-10 84 -25.5 168t-31.5 162l-84 395q-33 -18 -67 -36.5t-62 -37.5q-10 12 -25.5 25.5t-32.5 20.5z M526 -66l258 1471q20 -6 33.5 -10t24.5 -4q16 0 59 18l-258 -1470q-20 6 -33.5 10t-23.5 4q-16 0 -60 -19zM940 268q78 141 157 281.5t158 281.5q31 -10 60 -10q12 0 28.5 4t32.5 9q20 -129 46 -260.5t55 -260.5q57 0 116 17q0 -18 -1 -34.5t1 -27.5q4 -10 10.5 -26.5 t16.5 -32.5q-29 4 -60.5 6t-62.5 2q10 -53 25.5 -114.5t31.5 -116.5q-27 6 -47 10t-34 4q-16 0 -34 -4t-40 -10q-8 66 -17.5 125t-19.5 106h-117.5t-116 -1t-101.5 -2t-75 -3zM1075 313h266l-75 359q-12 -20 -24.5 -39t-22.5 -39q-37 -68 -76 -140.5t-68 -140.5z" />
<glyph unicode="&#xbd;" horiz-adv-x="1533" d="M-78 1249q76 27 150.5 60.5t128.5 66.5h32q10 -78 25.5 -160.5t32.5 -162.5l43 -203q16 -78 38.5 -163t45.5 -167q-27 6 -47.5 10.5t-36.5 4.5t-35.5 -4.5t-42.5 -10.5q-10 84 -25.5 168t-31.5 162l-84 395q-33 -18 -68 -36.5t-61 -37.5q-10 12 -25.5 25.5t-32.5 20.5z M520 -66l258 1471q20 -6 33.5 -10t22.5 -4q18 0 61 18l-258 -1470q-20 6 -33.5 10t-23.5 4q-16 0 -60 -19zM954 713q33 68 87.5 98.5t138.5 30.5q117 0 206 -53.5t113 -170.5q10 -49 6 -93t-35.5 -99t-94 -131t-169.5 -191h98.5t107.5 1t106.5 2.5t95.5 3.5q0 -20 -1 -34 t3 -24q2 -10 7 -25.5t17 -37.5q-72 4 -149.5 7t-149.5 3q-70 0 -144.5 -3t-143.5 -7l-11 47q16 20 34 37.5t32 36.5q63 76 114.5 138t83 120.5t44 117t-1.5 125.5q-18 86 -67.5 124t-104.5 38q-39 0 -65 -13t-41 -32.5t-20.5 -42t-5.5 -41.5l-22 -2z" />
<glyph unicode="&#xbe;" horiz-adv-x="1644" d="M-47 1298q27 27 71 52.5t138 25.5q102 0 182 -45t100 -141q16 -82 -16.5 -131t-83.5 -74q33 -6 70 -19.5t68.5 -36t56 -57t34.5 -84.5q27 -119 -53 -192.5t-235 -73.5q-76 0 -132.5 14.5t-99.5 32.5l6 93h23q27 -23 76 -46.5t108 -23.5q90 0 132 52t26 132 q-20 94 -75.5 129t-112.5 35q-23 0 -49.5 -5t-49.5 -11q6 31 2 49q-2 20 -26 61q33 -14 54 -19t36 -5q39 0 61.5 16t32.5 41t10 54.5t-6 58.5q-14 66 -60 97.5t-94 31.5q-49 0 -79.5 -27t-36.5 -61l-25 -2zM631 -66l258 1471q20 -6 33.5 -10t23.5 -4q18 0 62 18l-258 -1470 q-20 6 -34 10t-24 4q-18 0 -61 -19zM1022 268q78 141 156.5 281.5t158.5 281.5q31 -10 60 -10q12 0 27.5 4t31.5 9q20 -129 46 -260.5t54 -260.5q59 0 119 17q0 -18 -1 -34.5t1 -27.5q4 -10 10.5 -26.5t16.5 -32.5q-29 4 -60.5 6t-64.5 2q10 -53 25.5 -114.5t31.5 -116.5 q-25 6 -45 10t-35 4q-16 0 -34.5 -4t-40.5 -10q-8 66 -17.5 125t-19.5 106h-117.5t-116 -1t-100.5 -2t-74 -3zM1157 313h264l-75 359q-25 -41 -46 -78q-39 -68 -76.5 -140.5t-66.5 -140.5z" />
<glyph unicode="&#xbf;" horiz-adv-x="585" d="M80 870q-10 51 17.5 88t80.5 37q51 0 96 -36.5t56 -88.5q10 -53 -18.5 -89t-80.5 -36q-53 0 -97 36t-54 89zM111 -70.5q6 50.5 25.5 95.5t47 83.5t56.5 75.5q49 59 83.5 121t20.5 129q-8 37 -39 73t-78 36q-23 0 -39 -8.5t-26 -12.5l-31 19q8 12 12 31.5t2 35.5 q27 12 80 13q27 0 68 -12.5t82 -40t75.5 -72.5t49.5 -111q12 -55 6 -101t-24.5 -87t-44 -77t-52.5 -69q-25 -31 -46.5 -61.5t-36.5 -62t-22.5 -65.5t1.5 -71q8 -37 27.5 -64.5t47 -48t59 -30.5t62.5 -10q53 0 97 29.5t71 76.5l43 -131q-35 -27 -83 -49.5t-120 -22.5 q-76 0 -138 22.5t-109.5 60.5t-78 88t-42.5 106q-12 61 -6 111.5z" />
<glyph unicode="&#xc0;" horiz-adv-x="1355" d="M178 1772q-8 35 15.5 54t46.5 19q25 0 52 -14t56 -37l383 -317h-113l-342 190q-29 16 -59.5 40t-38.5 65zM227 -14q86 356 171 719.5t163 724.5h55q53 -84 112.5 -179.5t123.5 -193.5q96 -154 199.5 -318t197.5 -311t170 -264t119 -178q-39 6 -70.5 10t-54.5 4 q-49 0 -113 -12q-47 90 -113.5 202.5t-137.5 225.5q-18 33 -37 59.5t-35 54.5q-66 2 -129.5 3.5t-128.5 1.5q-61 0 -118.5 -1.5t-119.5 -3.5q-29 -154 -51 -298t-29 -244q-47 12 -84 12q-20 0 -42.5 -4t-47.5 -10zM506 645q23 0 46 -1t46 -1q29 -2 55.5 -2h53.5q57 0 105 1 t106 3l-312 473q-25 -125 -49.5 -237.5t-50.5 -235.5z" />
<glyph unicode="&#xc1;" horiz-adv-x="1357" d="M209 -14q86 356 171 719.5t163 724.5h55q53 -84 112.5 -179.5t123.5 -193.5q96 -154 199.5 -318t197.5 -311t170 -264t119 -178q-39 6 -71 10t-54 4q-49 0 -113 -12q-47 90 -113.5 202.5t-138.5 225.5q-18 33 -36.5 59.5t-35.5 54.5q-66 2 -129 3.5t-129 1.5 q-61 0 -118.5 -1.5t-118.5 -3.5q-29 -154 -51.5 -298t-28.5 -244q-47 12 -84 12q-20 0 -43 -4t-47 -10zM383 1477l248 317q18 23 39.5 37t48.5 14q23 0 54.5 -19.5t39.5 -53.5q8 -41 -13.5 -65t-43.5 -40q-63 -47 -129 -95t-131 -95h-113zM487 645q23 0 46.5 -1t46.5 -1 q29 -2 55.5 -2h52.5q57 0 105.5 1t105.5 3l-311 473q-25 -125 -49.5 -237.5t-51.5 -235.5z" />
<glyph unicode="&#xc2;" horiz-adv-x="1368" d="M221 -14q86 356 172 719.5t164 724.5h55q51 -84 111.5 -179.5t122.5 -193.5q96 -154 200.5 -318t197.5 -311t170 -264t118 -178q-37 6 -69.5 10t-55.5 4q-49 0 -113 -12q-45 90 -111.5 202.5t-138.5 225.5q-20 33 -37.5 59.5t-33.5 54.5q-66 2 -130.5 3.5t-129.5 1.5 q-61 0 -117.5 -1.5t-118.5 -3.5q-29 -154 -52.5 -298t-29.5 -244q-47 12 -84 12q-20 0 -41.5 -4t-48.5 -10zM225 1477l189 356h145l340 -356h-100l-283 206q-45 -49 -95 -103t-95 -103h-101zM500 645q23 0 46 -1t46 -1q29 -2 55.5 -2h52.5q57 0 105.5 1t105.5 3l-309 473 q-27 -125 -51.5 -237.5t-50.5 -235.5z" />
<glyph unicode="&#xc3;" horiz-adv-x="1355" d="M193 1526q-2 39 6 80t27.5 74.5t54 54t86.5 20.5q35 0 65.5 -10t95.5 -39q59 -27 86 -36t54 -9q41 0 60.5 30.5t23.5 71.5h79q2 -27 -2 -67.5t-23.5 -78.5t-56 -64.5t-100.5 -26.5q-29 0 -69.5 12t-90.5 37q-55 27 -84.5 36t-52.5 9q-41 0 -56 -20.5t-22 -73.5h-81z M209 -14q86 356 171 719.5t163 724.5h55q51 -84 111.5 -179.5t124.5 -193.5q96 -154 199.5 -318t197.5 -311t170 -264t119 -178q-39 6 -72 10t-55 4q-47 0 -111 -12q-47 90 -113.5 202.5t-138.5 225.5q-18 33 -36.5 59.5t-35.5 54.5q-66 2 -129 3.5t-129 1.5 q-61 0 -118.5 -1.5t-118.5 -3.5q-29 -154 -51.5 -298t-28.5 -244q-47 12 -86 12q-20 0 -42 -4t-46 -10zM485 645q23 0 47.5 -1t47.5 -1q29 -2 55.5 -2h52.5q57 0 105.5 1t103.5 3l-309 473q-27 -125 -51.5 -237.5t-51.5 -235.5z" />
<glyph unicode="&#xc4;" horiz-adv-x="1353" d="M199 1645q-10 47 15.5 79.5t72.5 32.5t88 -32.5t51 -79.5t-16.5 -81t-73.5 -34t-87 34t-50 81zM207 -14q86 356 171 719.5t163 724.5h55q53 -84 113.5 -179.5t121.5 -193.5q96 -154 201 -318t198 -311t170 -264t118 -178q-39 6 -71 10t-54 4q-49 0 -113 -12 q-45 90 -111.5 202.5t-138.5 225.5q-20 33 -37.5 59.5t-34.5 54.5q-66 2 -130 3.5t-130 1.5q-61 0 -117.5 -1.5t-117.5 -3.5q-29 -154 -52.5 -298t-29.5 -244q-47 12 -84 12q-20 0 -43 -4t-47 -10zM485 645q23 0 46.5 -1t46.5 -1q29 -2 55 -2h53q57 0 105.5 1t105.5 3 l-309 473q-27 -125 -51.5 -237.5t-51.5 -235.5zM596 1645q-10 47 16.5 79.5t73.5 32.5t87 -32.5t50 -79.5t-15.5 -81t-72.5 -34t-88 34t-51 81z" />
<glyph unicode="&#xc5;" horiz-adv-x="1366" d="M225 -14q86 356 172 719.5t164 724.5h55q51 -84 111.5 -179.5t122.5 -193.5q96 -154 200.5 -318t197.5 -311t170 -264t118 -178q-37 6 -69.5 10t-55.5 4q-49 0 -113 -12q-45 90 -111.5 202.5t-137.5 225.5q-20 33 -38 59.5t-34 54.5q-66 2 -129.5 3.5t-128.5 1.5 q-61 0 -118.5 -1.5t-119.5 -3.5q-29 -154 -52 -298t-30 -244q-47 12 -84 12q-20 0 -41.5 -4t-48.5 -10zM311 1659q-20 92 29 154.5t141 62.5q45 0 88 -17.5t78 -46t60.5 -68.5t35.5 -85q18 -90 -30.5 -152.5t-141.5 -62.5q-45 0 -88 16.5t-77.5 46t-60.5 68.5t-34 84z M416 1659q10 -45 48 -78t85 -33t73.5 33t16.5 78q-10 47 -49 80t-86 33t-72.5 -33t-15.5 -80zM504 645q23 0 46 -1t46 -1q29 -2 55.5 -2h53.5q57 0 105 1t105 3l-309 473q-27 -125 -51.5 -237.5t-50.5 -235.5z" />
<glyph unicode="&#xc6;" horiz-adv-x="1697" d="M162 -14q63 131 142 304t161 362.5t164 384t153 366.5q86 -4 175.5 -7t175.5 -3t176 3t170 7q-2 -23 -3 -40t3 -32q10 -37 30 -78q-35 6 -70.5 13.5t-89 11.5t-133 7t-200.5 3q4 -18 6 -38.5t6 -37.5q10 -66 23.5 -134t27.5 -134l33 -156q109 0 178.5 1.5t114.5 3.5 t72.5 4t52.5 4q6 0 18.5 1t18.5 1q-2 -18 -3 -35.5t3 -30.5q6 -27 28 -67q-6 0 -19 1t-20 1q-25 2 -54 4t-75.5 4t-116 3t-175.5 1l41 -192q16 -76 32.5 -151t36.5 -148q6 -23 12.5 -44.5t10.5 -44.5q215 0 329.5 8.5t165.5 16.5q-2 -23 -3 -39t3 -31q4 -14 12.5 -30.5 t18.5 -38.5q-90 4 -182 7t-178 3t-178.5 -3t-178.5 -7q-16 141 -39.5 263t-50.5 245l-452 10q-53 -125 -94.5 -255t-78.5 -265q-53 12 -90 12q-25 0 -53.5 -4t-56.5 -10zM569 614l396 -12l-134 623h-6q-66 -156 -128 -304.5t-128 -306.5z" />
<glyph unicode="&#xc7;" horiz-adv-x="1288" d="M-20.5 1006.5q26.5 136.5 108.5 230.5t212 143.5t300 49.5q133 0 256 -29t217 -68q-10 -31 -11 -78t-1 -79q2 -4 2 -9.5v-7.5l-25 -4q-27 25 -68.5 55.5t-96 58t-119 47t-133.5 19.5q-117 0 -209.5 -37.5t-149.5 -115.5t-73.5 -199t18.5 -287t102.5 -285.5t157.5 -198.5 t198.5 -116t225.5 -37q72 0 130 18.5t105.5 44t82 55.5t59.5 52l20 -16l8 -131q-16 -16 -53 -36.5t-89 -39t-119.5 -31t-143.5 -12.5h-17q-4 -23 -6 -45t-6 -49q8 2 18.5 2h22.5q84 0 139.5 -42t71.5 -112q8 -45 -4 -78.5t-42 -57t-72 -35t-93 -11.5q-66 0 -117 13.5 t-86 25.5l19 84q27 -10 68.5 -18.5t89.5 -8.5q45 0 73.5 18.5t20.5 55.5q-8 39 -39 55.5t-68 16.5q-63 0 -86 -19l-30 25l34 182q-145 16 -274 72.5t-232.5 149t-178 221.5t-107.5 288q-37 174 -10.5 310.5z" />
<glyph unicode="&#xc8;" horiz-adv-x="823" d="M-70 1772q-8 35 15.5 54t46.5 19q25 0 52.5 -14t55.5 -37l381 -317h-112l-340 190q-29 16 -59.5 40t-39.5 65zM-31 1403q92 -4 185.5 -7t185.5 -3t186.5 3t182.5 7q0 -20 2 -36.5t6 -33.5q4 -16 8 -33.5t14 -37.5q-29 2 -61.5 4t-56.5 4q-43 4 -87.5 7t-93.5 6t-107.5 4 t-131.5 1q8 -45 14 -86q6 -35 13.5 -77t17.5 -83q10 -47 20 -92t19 -86l16 -78q166 0 279.5 5.5t210.5 15.5q0 -18 2 -37.5t6 -36.5q6 -29 22 -74q-55 6 -125.5 10.5t-140.5 6.5t-131.5 3t-99.5 1q2 -16 7 -37.5t11 -53.5t15.5 -78t23.5 -114q25 -117 41 -185.5t27 -107.5 q68 0 142.5 1t147 4.5t138 8.5t114.5 15q0 -23 1 -43t5 -31q4 -31 23 -69q-92 4 -188.5 7t-188.5 3t-187.5 -3t-187.5 -7q-23 133 -46 269t-52 265l-74 348q-29 131 -61.5 266.5t-65.5 264.5z" />
<glyph unicode="&#xc9;" horiz-adv-x="821" d="M-53 1403q92 -4 185 -7t185 -3t186.5 3t182.5 7q0 -20 2 -36.5t6 -33.5q4 -16 8.5 -33.5t14.5 -37.5q-29 2 -61.5 4t-57.5 4q-43 4 -87 7t-93 6t-107.5 4t-132.5 1q8 -45 15 -86q6 -35 13 -77t17 -83q10 -47 20.5 -92t18.5 -86l17 -78q166 0 279.5 5.5t209.5 15.5 q0 -18 2 -37.5t6 -36.5q6 -29 23 -74q-55 6 -126 10.5t-140.5 6.5t-131 3t-100.5 1q2 -16 7 -37.5t11.5 -53.5t15.5 -78t23 -114q25 -117 41.5 -185.5t26.5 -107.5q68 0 142.5 1t147 4.5t138.5 8.5t115 15q0 -23 1 -43t5 -31q4 -31 22 -69q-92 4 -188 7t-188 3t-187.5 -3 t-187.5 -7q-23 133 -46.5 269t-52.5 265l-73 348q-29 131 -60.5 266.5t-66.5 264.5zM129 1477l250 317q16 23 38.5 37t47.5 14q23 0 54.5 -19.5t39.5 -53.5q8 -41 -12.5 -65t-42.5 -40q-66 -47 -131.5 -95t-130.5 -95h-113z" />
<glyph unicode="&#xca;" horiz-adv-x="835" d="M-37 1403q92 -4 186.5 -7t186.5 -3t185 3t181 7q0 -20 3.5 -36.5t7.5 -33.5q4 -16 7 -33.5t13 -37.5q-29 2 -60.5 4t-58.5 4q-43 4 -87 7t-93 6t-107.5 4t-131.5 1q6 -25 8 -44t6 -42q6 -35 13 -77t18 -83q10 -47 20 -92t19 -86l16 -78q166 0 280.5 5.5t208.5 15.5 q0 -18 2 -37.5t7 -36.5q6 -35 24 -74q-57 6 -128 10.5t-139.5 6.5t-130 3t-100.5 1q2 -16 6.5 -37.5t10.5 -53.5t16 -78t25 -114q25 -117 40 -185.5t25 -107.5q68 0 142.5 1t147.5 4.5t138.5 8.5t114.5 15q0 -23 2 -43t4 -31q8 -33 23 -69q-90 4 -187.5 7t-189.5 3 t-187.5 -3t-187.5 -7q-23 133 -45 269t-51 265l-74 348q-29 131 -62.5 266.5t-66.5 264.5zM-23 1477l187 356h147l338 -356h-100l-283 206q-45 -49 -95 -103t-95 -103h-99z" />
<glyph unicode="&#xcb;" horiz-adv-x="833" d="M-45 1403q92 -4 186.5 -7t186.5 -3t185 3t181 7q0 -20 3 -36.5t8 -33.5q4 -16 7 -33.5t13 -37.5q-29 2 -61.5 4t-57.5 4q-43 4 -87 7t-93 6t-107.5 4t-132.5 1q6 -25 8.5 -44t6.5 -42q6 -35 13 -77t17 -83q10 -47 20.5 -92t18.5 -86l17 -78q166 0 280.5 5.5t208.5 15.5 q0 -18 2 -37.5t6 -36.5q6 -35 25 -74q-57 6 -128 10.5t-140.5 6.5t-131 3t-100.5 1q2 -16 7.5 -37.5t11.5 -53.5t16 -78t25 -114q25 -117 40 -185.5t25 -107.5q68 0 142.5 1t147.5 4.5t138.5 8.5t114.5 15q0 -23 2 -43t4 -31q8 -33 23 -69q-92 4 -188.5 7t-188.5 3 t-187.5 -3t-187.5 -7q-23 133 -46.5 269t-49.5 265l-74 348q-29 131 -61.5 266.5t-67.5 264.5zM-43 1645q-10 47 16.5 79.5t71.5 32.5q47 0 87 -32.5t50 -79.5t-16.5 -81t-73.5 -34t-86 34t-49 81zM352 1645q-10 47 17.5 79.5t74.5 32.5t86 -32.5t50 -79.5q10 -47 -15.5 -81 t-72.5 -34t-88.5 34t-51.5 81z" />
<glyph unicode="&#xcc;" horiz-adv-x="520" d="M-172 1772q-8 35 14.5 54t44.5 19q27 0 54.5 -14t54.5 -37l381 -317h-113l-340 190q-29 16 -58.5 40t-37.5 65zM119 1405q68 -12 110 -12q47 0 109 12q23 -131 45.5 -267.5t50.5 -267.5l74 -348q29 -129 62.5 -266t68.5 -268q-68 12 -113 12t-106 -12q-23 131 -46.5 268 t-51.5 266l-74 348q-29 131 -61.5 267.5t-67.5 267.5z" />
<glyph unicode="&#xcd;" horiz-adv-x="518" d="M-98 1477l245 317q16 23 39 37t50 14q23 0 53 -19.5t39 -53.5q8 -41 -12.5 -65t-43.5 -40q-63 -47 -128.5 -95t-131.5 -95h-110zM-29 1405q63 -12 111 -12q45 0 106 12q23 -131 45.5 -267.5t51.5 -267.5l73 -348q29 -129 63 -266t68 -268q-68 12 -110 12q-47 0 -109 -12 q-23 131 -46 268t-52 266l-74 348q-29 131 -61.5 267.5t-65.5 267.5z" />
<glyph unicode="&#xce;" d="M-113 1477l187 356h145l340 -356h-100l-283 206q-45 -49 -95 -103t-93 -103h-101zM127 1405q63 -12 111 -12q47 0 106 12q23 -131 46.5 -267.5t51.5 -267.5l74 -348q29 -129 61.5 -266t67.5 -268q-66 12 -110 12q-49 0 -107 -12q-23 131 -45.5 268t-50.5 266l-74 348 q-29 131 -62.5 267.5t-68.5 267.5z" />
<glyph unicode="&#xcf;" horiz-adv-x="653" d="M-150 1645q-10 47 17 79.5t74 32.5t86 -32.5t49 -79.5t-15.5 -81t-72.5 -34t-87.5 34t-50.5 81zM102 1405q63 -12 113 -12q45 0 104 12q23 -131 46.5 -267.5t52.5 -267.5l74 -348q29 -129 61.5 -266t67.5 -268q-66 12 -111 12q-49 0 -107 -12q-23 131 -45 268t-51 266 l-74 348q-29 131 -62.5 267.5t-68.5 267.5zM246 1645q-10 47 17.5 79.5t74.5 32.5t86 -32.5t49 -79.5t-15.5 -81t-72.5 -34t-88 34t-51 81z" />
<glyph unicode="&#xd0;" horiz-adv-x="1597" d="M20 836q57 -4 105.5 -4.5t95.5 -0.5l-8 39q-29 131 -61.5 266.5t-67.5 266.5q78 -4 159 -7t158 -3q37 0 75 1t77 3q37 2 75 4t77 2q180 0 318 -47t238.5 -134t165 -213t99.5 -284q43 -205 2 -345t-132 -227t-215 -125t-245 -38q-35 0 -68.5 1t-68.5 3t-68 4t-67 2 q-68 0 -140.5 -3t-138.5 -7q-23 131 -46.5 267t-49.5 265l-47 215h-96.5t-102.5 -4q-2 16 -3 30.5t-3 22.5q0 4 -6 18.5t-11 31.5zM324 1280q14 -96 32.5 -198.5t40.5 -211.5l9 -39q98 0 199.5 1.5t193.5 5.5q-2 -37 0 -52q2 -14 22 -57q-94 4 -195.5 6t-199.5 2l47 -215 q23 -109 47.5 -212t52.5 -208q45 -10 115 -14t146 -4q111 0 213 26.5t173.5 97.5t99.5 195.5t-13 321.5q-37 172 -102.5 283.5t-154.5 176t-198 89t-231 24.5q-86 0 -162 -5t-135 -13z" />
<glyph unicode="&#xd1;" horiz-adv-x="1353" d="M-20 1430h45q27 -23 54 -49.5t56 -49.5q147 -129 303 -266t304.5 -267t281.5 -245t236 -199q-29 131 -57.5 269.5t-59.5 275.5t-61.5 266t-61.5 242q27 -6 46 -10t34 -4q14 0 33.5 4t42.5 10q4 -31 11 -84t16 -116.5t20.5 -133t22.5 -136.5t22.5 -124t19.5 -96 q10 -51 25.5 -121t32 -145.5t34 -153.5t31.5 -144.5t25.5 -116.5t17.5 -73h-43q-266 250 -564 512t-593 518l-84 72q12 -59 28.5 -149.5t47.5 -235.5q10 -43 23.5 -105.5t29.5 -132t32.5 -141.5t33 -134.5t29 -110.5t20.5 -70q-25 6 -46.5 10t-37.5 4t-37 -4t-49 -10 q-2 25 -9.5 82t-18.5 134t-25.5 167t-30 181t-30.5 176t-30 153q-41 193 -72.5 338t-47.5 213zM223 1526q-2 39 6.5 80t27.5 74.5t54 54t86 20.5q33 0 65 -10t97 -39q59 -27 86 -36t53 -9q41 0 60.5 30.5t23.5 71.5h78q2 -27 -3 -67.5t-23.5 -78.5t-54.5 -64.5t-99 -26.5 q-29 0 -70 12t-90 37q-57 27 -85.5 36t-51.5 9q-43 0 -58.5 -20.5t-19.5 -73.5h-82z" />
<glyph unicode="&#xd2;" horiz-adv-x="1624" d="M83 1006.5q28 136.5 109.5 230.5t210.5 143.5t299 49.5t322 -49.5t273.5 -143.5t206.5 -230.5t122 -310.5t9.5 -310t-108.5 -230.5t-212 -143.5t-301 -49t-320.5 49t-272.5 143.5t-207 230.5t-122 310t-9 310.5zM292.5 983q-16.5 -121 18.5 -287t102.5 -285.5t158 -198.5 t198 -116t223.5 -37q117 0 209 37t149.5 116t74 198.5t-18.5 285.5t-102.5 287t-157.5 199t-198.5 115.5t-225.5 37.5t-209 -37.5t-148.5 -115.5t-73 -199zM303 1772q-8 35 16.5 54t47.5 19q25 0 52 -14t56 -37l383 -317h-113l-342 190q-29 16 -59.5 40t-40.5 65z" />
<glyph unicode="&#xd3;" horiz-adv-x="1624" d="M74.5 1006.5q27.5 136.5 109.5 230.5t211 143.5t299 49.5t321.5 -49.5t273.5 -143.5t207 -230.5t122 -310.5t9 -310t-108.5 -230.5t-211.5 -143.5t-301 -49t-320.5 49t-272.5 143.5t-207 230.5t-122 310t-9.5 310.5zM284.5 983q-16.5 -121 18.5 -287t102.5 -285.5 t157.5 -198.5t197.5 -116t224.5 -37t209 37t149.5 116t74 198.5t-18.5 285.5t-102.5 287t-157.5 199t-199 115.5t-225 37.5q-117 0 -209 -37.5t-148.5 -115.5t-73 -199zM520 1477l248 317q18 23 39.5 37t48.5 14q23 0 53.5 -19.5t38.5 -53.5q10 -41 -11.5 -65t-43.5 -40 q-63 -47 -129 -95t-131 -95h-113z" />
<glyph unicode="&#xd4;" horiz-adv-x="1632" d="M81 1006.5q28 136.5 109.5 230.5t210.5 143.5t299 49.5t322 -49.5t273.5 -143.5t206.5 -230.5t122 -310.5t10.5 -310t-108.5 -230.5t-213 -143.5t-301 -49t-320.5 49t-271.5 143.5t-207 230.5t-123 310t-9 310.5zM290.5 983q-16.5 -121 18.5 -287t102.5 -285.5 t157.5 -198.5t197.5 -116t224.5 -37t209 37t149.5 116t74 198.5t-18.5 285.5t-102.5 287t-157.5 199t-198.5 115.5t-225.5 37.5t-209 -37.5t-148.5 -115.5t-73 -199zM354 1477l189 356h145l340 -356h-100l-281 206q-45 -49 -95 -103t-97 -103h-101z" />
<glyph unicode="&#xd5;" horiz-adv-x="1632" d="M74.5 1006.5q27.5 136.5 108.5 230.5t211 143.5t300 49.5t321.5 -49.5t272.5 -143.5t207 -230.5t123 -310.5t9 -310t-108.5 -230.5t-211.5 -143.5t-301 -49t-320.5 49t-272.5 143.5t-207 230.5t-122 310t-9.5 310.5zM283.5 983q-15.5 -121 19.5 -287t102.5 -285.5 t157.5 -198.5t197.5 -116t224.5 -37t209 37t149.5 116t74 198.5t-18.5 285.5t-103.5 287t-158.5 199t-199 115.5t-225 37.5q-117 0 -208 -37.5t-148.5 -115.5t-73 -199zM330 1526q-2 39 6 80t27.5 74.5t54.5 54t86 20.5q35 0 65.5 -10t96.5 -39q59 -27 85.5 -36t53.5 -9 q41 0 60.5 30.5t23.5 71.5h80q2 -27 -3 -67.5t-23.5 -78.5t-55.5 -64.5t-101 -26.5q-29 0 -69.5 12t-89.5 37q-55 27 -85 36t-53 9q-41 0 -56 -20.5t-21 -73.5h-82z" />
<glyph unicode="&#xd6;" horiz-adv-x="1632" d="M73.5 1006.5q26.5 136.5 108.5 230.5t211 143.5t299 49.5t321.5 -49.5t273.5 -143.5t208 -230.5t123 -310.5t9 -310t-108.5 -230.5t-211.5 -143.5t-301 -49t-320.5 49t-272.5 143.5t-207 230.5t-122 310t-10.5 310.5zM283.5 983q-15.5 -121 19.5 -287t102.5 -285.5 t157.5 -198.5t197.5 -116t224.5 -37t209 37t149.5 116t74 198.5t-18.5 285.5t-103.5 287t-158.5 199t-199 115.5t-225 37.5q-117 0 -208 -37.5t-148.5 -115.5t-73 -199zM336 1645q-10 47 15.5 79.5t72.5 32.5t88 -32.5t51 -79.5t-16.5 -81t-73.5 -34t-87 34t-50 81z M733 1645q-10 47 16.5 79.5t73.5 32.5t87 -32.5t51 -79.5q10 -47 -15.5 -81t-73.5 -34q-47 0 -88 34t-51 81z" />
<glyph unicode="&#xd7;" horiz-adv-x="1060" d="M-10 895l69 88l451 -371q72 92 146.5 185.5t146.5 185.5l110 -88l-292 -375l450 -370l-72 -91l-450 371l-293 -371l-111 91l295 370q-113 92 -227.5 187.5t-222.5 187.5z" />
<glyph unicode="&#xd8;" horiz-adv-x="1656" d="M50 1006.5q28 136.5 110 230.5t211 143.5t299 49.5q293 0 512 -140q14 20 34.5 51t41 63t36 59.5t19.5 41.5q16 -16 41.5 -35.5t48.5 -29.5q-14 -12 -33.5 -36t-41 -52.5t-42 -57t-35.5 -51.5q123 -94 213 -231.5t129 -315.5q37 -174 9.5 -310t-108.5 -230.5t-212 -143.5 t-301 -49q-287 0 -506 133q-16 -23 -35.5 -52.5t-39 -60t-36 -58t-22.5 -48.5q-23 23 -45.5 39t-44.5 27q12 12 31.5 35.5t41 52t42 59.5t36.5 55q-129 92 -217 231.5t-127 319.5q-37 174 -9 310.5zM260 983q-16 -121 19 -287q29 -141 83 -248.5t123 -183.5l623 922 q-90 78 -194.5 113.5t-223.5 35.5q-117 0 -209 -37.5t-148.5 -115.5t-72.5 -199zM549 205q88 -74 192.5 -110t219.5 -36q117 0 209 37t149 116t73.5 198.5t-18.5 285.5q-29 135 -83 243t-120 185z" />
<glyph unicode="&#xd9;" horiz-adv-x="1316" d="M-45 1405q31 -6 62.5 -9t54.5 -3q20 0 44.5 4t51.5 10q6 -49 17.5 -124t26.5 -167t35.5 -198.5t45.5 -217.5q20 -102 51 -211.5t91.5 -200.5t161.5 -150.5t267 -59.5q109 0 176.5 31.5t104.5 84t48 121t8 141t-17.5 145.5t-26.5 136q-31 143 -54.5 253t-42 191t-33.5 136 t-28 90q29 -6 53.5 -10t45.5 -4q27 0 69 16q8 -72 23.5 -172t35 -215t41 -235.5t44.5 -231.5q27 -135 10.5 -244.5t-75 -186.5t-158 -119t-238.5 -42q-305 0 -477 144.5t-236 443.5q-10 51 -17 94t-14 84q-8 37 -13 71t-13 70q-31 143 -58.5 261t-50.5 208q-4 16 -8 35 t-8 31zM156 1772q-8 35 16.5 54t46.5 19q25 0 52.5 -14t56.5 -37l383 -317h-113l-342 190q-29 16 -59.5 40t-40.5 65z" />
<glyph unicode="&#xda;" horiz-adv-x="1314" d="M-59 1405q31 -6 62.5 -9t53.5 -3q20 0 45 4t52 10q6 -49 17 -124t26.5 -167t36 -198.5t45.5 -217.5q20 -102 50.5 -211.5t91 -200.5t162 -150.5t267.5 -59.5q109 0 176.5 31.5t104 84t48 121t8.5 141t-17.5 145.5t-26.5 136q-31 143 -54.5 253t-42 191t-34 136t-27.5 90 q29 -6 53.5 -10t44.5 -4q27 0 70 16q8 -72 23.5 -172t35 -215t41 -235.5t43.5 -231.5q27 -135 10.5 -244.5t-74.5 -186.5t-157.5 -119t-238.5 -42q-305 0 -477.5 144.5t-235.5 443.5q-10 51 -17.5 94t-13.5 84q-8 37 -13 71t-13 70q-31 143 -58.5 261t-50.5 208q-4 16 -8 35 t-8 31zM367 1477l247 317q18 23 40 37t48 14q23 0 53.5 -19.5t39.5 -53.5q10 -41 -11.5 -65t-44.5 -40q-63 -47 -128.5 -95t-131.5 -95h-112z" />
<glyph unicode="&#xdb;" horiz-adv-x="1325" d="M-47 1405q31 -6 61.5 -9t53.5 -3q20 0 44.5 4t53.5 10q4 -49 15.5 -124t26.5 -167t35.5 -198.5t45.5 -217.5q20 -102 51 -211.5t92.5 -200.5t162.5 -150.5t267 -59.5q109 0 175.5 31.5t103.5 84t48 121t8 141t-17.5 145.5t-26.5 136q-31 143 -54.5 253t-42 191t-32.5 136 t-27 90q29 -6 52.5 -10t44.5 -4q27 0 69 16q8 -72 23.5 -172t35 -215t41 -235.5t44.5 -231.5q27 -135 10 -244.5t-75 -186.5t-157.5 -119t-238.5 -42q-305 0 -476 144.5t-237 443.5q-10 51 -16 94t-15 84q-6 37 -12 71t-14 70q-31 143 -57.5 261t-49.5 208q-4 16 -9 35 t-7 31zM205 1477l188 356h146l340 -356h-101l-280 206q-45 -49 -95.5 -103t-97.5 -103h-100z" />
<glyph unicode="&#xdc;" horiz-adv-x="1327" d="M-55 1405q31 -6 61.5 -9t52.5 -3q20 0 46 4t53 10q4 -49 15 -124t26.5 -167t36 -198.5t45.5 -217.5q20 -102 50.5 -211.5t92 -200.5t163 -150.5t267.5 -59.5q109 0 175.5 31.5t103 84t48 121t8.5 141t-17.5 145.5t-26.5 136q-31 143 -54.5 253t-42 191t-33 136t-26.5 90 q29 -6 52.5 -10t43.5 -4q29 0 72 16q8 -72 23.5 -172t34 -215t40 -235.5t43.5 -231.5q27 -135 11.5 -244.5t-73.5 -186.5t-157.5 -119t-238.5 -42q-305 0 -477.5 144.5t-235.5 443.5q-10 51 -17.5 94t-15.5 84q-6 37 -11 71t-15 70q-29 143 -56.5 261t-50.5 208q-4 16 -8 35 t-8 31zM186 1645q-10 47 15.5 79.5t72.5 32.5t88 -32.5t52 -79.5q10 -47 -16.5 -81t-73.5 -34t-87.5 34t-50.5 81zM584 1645q-10 47 16.5 79.5t73.5 32.5t87 -32.5t50 -79.5t-15.5 -81t-72.5 -34t-88 34t-51 81z" />
<glyph unicode="&#xdd;" horiz-adv-x="1191" d="M-109 1407q41 -6 76 -10t60 -4q47 0 112 12q125 -174 255 -343t272 -349q63 145 122.5 329.5t106.5 362.5q23 -6 46.5 -9t41.5 -3q31 0 96 16q-66 -154 -118 -276.5t-92 -221t-69.5 -176.5t-47.5 -139q16 -74 36.5 -162t40 -174t38 -158.5t30.5 -113.5q-66 12 -113 12 q-49 0 -106 -12q-12 121 -42 272.5t-65 310.5q-29 37 -83 103.5t-120.5 149.5t-138 172t-138 170t-120 144.5t-80.5 96.5zM309 1456l248 320q18 23 39.5 36t48.5 13q23 0 54.5 -19.5t39.5 -54.5q8 -41 -13 -63.5t-44 -38.5q-63 -47 -129 -96.5t-131 -96.5h-113z" />
<glyph unicode="&#xde;" horiz-adv-x="970" d="M-68 1405q68 -12 109 -12q49 0 111 12q8 -72 17 -139.5t21 -126.5h238q209 0 345 -86t177 -275q25 -115 -3.5 -190.5t-92 -120.5t-150 -63.5t-178.5 -18.5q-53 0 -94 1t-84 5l23 -100q8 -43 18 -87t21.5 -84t22.5 -75t22 -57q-68 12 -117 12q-45 0 -107 -12 q-23 131 -46 268t-50 266l-76 348q-29 131 -60.5 267.5t-66.5 267.5zM209 1044l119 -557q27 -4 67.5 -5t81.5 -1q61 0 116.5 17.5t94.5 53.5t55.5 91t-0.5 133q-10 49 -35.5 97.5t-70.5 86t-109.5 61t-150.5 23.5h-168z" />
<glyph unicode="&#xdf;" horiz-adv-x="1060" d="M3 1291q22 89 72 145.5t118.5 82t136.5 25.5q47 0 104.5 -17.5t108.5 -48t90 -74.5t51 -97q10 -45 6 -84t-17.5 -74t-31.5 -65.5t-39 -59.5q-29 -43 -50.5 -80t-10.5 -76q12 -59 73.5 -100t141.5 -88q51 -29 102 -59.5t96 -69.5t78 -86t45 -107q14 -68 -5 -137 t-63 -124.5t-109.5 -91.5t-145.5 -36q-68 0 -126.5 15.5t-101.5 38.5q10 27 13.5 64.5t-0.5 68.5h26q29 -37 88.5 -63.5t118.5 -26.5q39 0 74 14t58.5 39.5t33.5 63.5t0 85t-37 86t-65.5 72t-83.5 60.5t-93 54.5q-45 27 -88 54.5t-78.5 58t-61 65.5t-34.5 78 q-12 59 14.5 108t61.5 103q20 29 41 59.5t35 64t19 71.5t-3 79q-16 76 -77.5 127t-151.5 51q-133 0 -161 -103.5t13 -299.5l103 -475q14 -68 31.5 -149t36 -160.5t38 -153.5t37.5 -131q-59 12 -104 12q-51 0 -103 -12q-6 57 -18 132t-27.5 154.5t-31 159.5t-29.5 148 l-53 247q-14 66 -25.5 114t-22.5 83q-4 16 -7 28.5t-5 20.5q-27 127 -5 216z" />
<glyph unicode="&#xe0;" horiz-adv-x="948" d="M10 1423q-8 37 15.5 56.5t46.5 19.5q27 0 53.5 -14.5t54.5 -36.5l383 -320h-112l-342 193q-29 16 -60 38.5t-39 63.5zM111 872q82 72 154.5 97.5t154.5 25.5q76 0 142.5 -22.5t119.5 -62.5t90 -97t51 -127q25 -113 45.5 -227.5t46.5 -243.5q6 -23 12.5 -47.5t16.5 -45 t27.5 -33.5t42.5 -13q10 0 21.5 2t27.5 12l14 -67q-20 -10 -54 -20.5t-79 -10.5q-63 0 -105 32.5t-65 77.5q-55 -68 -116.5 -100.5t-163.5 -32.5q-53 0 -107.5 18.5t-100.5 52.5t-80 81t-46 106q-29 127 35.5 197t195.5 90q104 16 160.5 28.5t82 27t29 31.5t-3.5 44 q-10 49 -31.5 93t-54 78t-77.5 54.5t-103 20.5q-78 0 -138 -36t-83 -101h-37zM340 256q20 -92 80.5 -137t124.5 -45q74 0 125 41t73 94l-53 287q-23 -6 -46 -11.5t-52 -11.5q-49 -10 -99.5 -22.5t-88 -36t-57 -60.5t-7.5 -98z" />
<glyph unicode="&#xe1;" horiz-adv-x="940" d="M80 872q82 72 154.5 97.5t154.5 25.5q76 0 142.5 -22.5t120 -62.5t90 -97t51.5 -127q25 -113 45 -227.5t47 -243.5q6 -23 12 -47.5t16.5 -45t27.5 -33.5t42 -13q10 0 21.5 2t27.5 12l15 -67q-20 -10 -54.5 -20.5t-79.5 -10.5q-63 0 -105 32.5t-65 77.5 q-55 -68 -116.5 -100.5t-163.5 -32.5q-53 0 -107.5 18.5t-100.5 52.5t-80 81t-46 106q-29 127 35.5 197t195.5 90q104 16 161 28.5t82.5 27t28.5 31.5t-3 44q-10 49 -32 93t-54.5 78t-77.5 54.5t-103 20.5q-78 0 -138 -36t-83 -101h-37zM203 1128l248 320q18 23 40.5 37 t47.5 14q23 0 54.5 -19.5t39.5 -56.5q8 -41 -13.5 -63.5t-44.5 -38.5q-63 -47 -128.5 -96t-131.5 -97h-112zM309 256q20 -92 81 -137t124 -45q74 0 125 41t74 94l-54 287q-23 -6 -46 -11.5t-52 -11.5q-49 -10 -99 -22.5t-88 -36t-57.5 -60.5t-7.5 -98z" />
<glyph unicode="&#xe2;" horiz-adv-x="954" d="M51 1128l189 359h147l338 -359h-100l-283 209q-45 -51 -95 -104t-95 -105h-101zM98 872q84 72 157 97.5t155 25.5q76 0 142 -22.5t119.5 -62.5t89.5 -97t52 -127q23 -113 43.5 -227.5t48.5 -243.5q4 -23 10.5 -47.5t17.5 -45t27.5 -33.5t40.5 -13q10 0 22.5 2t29.5 12 l14 -67q-23 -10 -55.5 -20.5t-77.5 -10.5q-63 0 -106.5 32.5t-65.5 77.5q-53 -68 -115.5 -100.5t-165.5 -32.5q-53 0 -107.5 18.5t-100.5 52.5t-79.5 81t-46.5 106q-27 129 37 198t197 89q102 16 158.5 28.5t82 27t28.5 31.5t-3 44q-10 49 -31.5 93t-54.5 78t-78 54.5 t-102 20.5q-78 0 -137.5 -36t-81.5 -101h-37zM328 256q20 -92 80.5 -137t123.5 -45q74 0 125.5 41t73.5 94l-51 287q-23 -6 -47.5 -11.5t-50.5 -11.5q-49 -10 -99.5 -22.5t-88.5 -36t-58.5 -60.5t-7.5 -98z" />
<glyph unicode="&#xe3;" horiz-adv-x="968" d="M33 1180q-2 39 6 79.5t27.5 73.5t54.5 53.5t86 20.5q35 0 65.5 -9t96.5 -38q59 -27 85.5 -36t53.5 -9q43 0 61.5 29.5t22.5 70.5h80q2 -27 -2 -66.5t-23.5 -77.5t-56.5 -64.5t-101 -26.5q-27 0 -68.5 12t-90.5 35q-55 27 -85 36t-52 9q-41 0 -55.5 -19.5t-22.5 -72.5h-82 zM100 872q82 72 155 97.5t155 25.5q76 0 142 -22.5t119.5 -62.5t90.5 -97t51 -127q25 -113 44.5 -227.5t47.5 -243.5q4 -23 10.5 -47.5t17.5 -45t27.5 -33.5t40.5 -13q10 0 22.5 2t29.5 12l14 -67q-23 -10 -55.5 -20.5t-77.5 -10.5q-63 0 -105.5 32.5t-64.5 77.5 q-55 -68 -116.5 -100.5t-164.5 -32.5q-53 0 -107 18.5t-100.5 52.5t-80 81t-45.5 106q-29 127 35.5 197t195.5 90q102 16 159.5 28.5t83 27t27.5 31.5t-4 44q-10 49 -30.5 93t-53.5 78t-78 54.5t-102 20.5q-78 0 -138.5 -36t-82.5 -101h-37zM330 256q18 -90 79.5 -136 t125.5 -46q74 0 125 41t73 94l-53 287q-23 -6 -47.5 -11.5t-50.5 -11.5q-49 -10 -99.5 -22.5t-88.5 -36t-57.5 -60.5t-6.5 -98z" />
<glyph unicode="&#xe4;" horiz-adv-x="964" d="M37 1296q-10 47 16.5 80t73.5 33t87 -33t50 -80t-16.5 -79.5t-73.5 -32.5t-87 32.5t-50 79.5zM96 872q84 72 157 97.5t155 25.5q76 0 142 -22.5t119.5 -62.5t89.5 -97t52 -127q23 -113 43 -227.5t49 -243.5q4 -23 10.5 -47.5t17.5 -45t27.5 -33.5t40.5 -13q10 0 22.5 2 t29.5 12l14 -67q-23 -10 -55.5 -20.5t-77.5 -10.5q-63 0 -106.5 32.5t-65.5 77.5q-53 -68 -115.5 -100.5t-165.5 -32.5q-53 0 -107.5 18.5t-100.5 52.5t-79.5 81t-46.5 106q-27 129 37 198t197 89q102 16 158.5 28.5t82 27t28.5 31.5t-3 44q-10 49 -31.5 93t-54.5 78 t-78 54.5t-102 20.5q-78 0 -137.5 -36t-81.5 -101h-37zM326 256q20 -92 80.5 -137t123.5 -45q74 0 125.5 41t73.5 94l-53 287q-23 -6 -46.5 -11.5t-49.5 -11.5q-49 -10 -99.5 -22.5t-88.5 -36t-58.5 -60.5t-7.5 -98zM434 1296q-10 47 17.5 80t74.5 33t86 -33t50 -80 q10 -47 -15.5 -79.5t-73.5 -32.5q-47 0 -88 32.5t-51 79.5z" />
<glyph unicode="&#xe5;" horiz-adv-x="952" d="M104 872q82 72 155 97.5t155 25.5q76 0 142.5 -22.5t119.5 -62.5t90 -97t51 -127q23 -113 43.5 -227.5t48.5 -243.5q4 -23 10.5 -47.5t17.5 -45t27.5 -33.5t41.5 -13q10 0 22 2t29 12l14 -67q-23 -10 -55.5 -20.5t-77.5 -10.5q-63 0 -106.5 32.5t-65.5 77.5 q-53 -68 -115.5 -100.5t-165.5 -32.5q-53 0 -107 18.5t-100.5 52.5t-80 81t-45.5 106q-27 129 36.5 198t196.5 89q102 16 159.5 28.5t83 27t27.5 31.5t-4 44q-10 49 -30.5 93t-53 78t-78 54.5t-102.5 20.5q-78 0 -138.5 -36t-82.5 -101h-37zM137 1313q-18 90 31 152.5 t141 62.5q45 0 88 -17.5t79 -46t60.5 -67.5t34.5 -84q18 -90 -32 -153.5t-142 -63.5q-45 0 -88 17t-77.5 47t-60.5 69t-34 84zM242 1313q10 -47 48 -79t85 -32t73.5 32t16.5 79q-10 45 -49 77.5t-86 32.5t-72.5 -32.5t-15.5 -77.5zM334 256q18 -92 78.5 -137t124.5 -45 q74 0 125 41t73 94l-51 287q-23 -6 -47.5 -11.5t-50.5 -11.5q-49 -10 -99.5 -22.5t-88.5 -36t-57 -60.5t-7 -98z" />
<glyph unicode="&#xe6;" horiz-adv-x="1605" d="M76 872q82 72 154.5 97.5t154.5 25.5q66 0 157 -30.5t177 -112.5q41 66 112.5 104.5t163.5 38.5q109 0 196 -33.5t152.5 -91t108.5 -134.5t61 -163q4 -20 8.5 -44.5t6.5 -43.5q-37 0 -79 1t-79 1q-72 2 -143.5 3.5t-143.5 1.5q-45 0 -87 -1.5t-87 -3.5q-23 0 -40 -1 t-40 -1q2 -4 1 -8t1 -8q2 -8 4.5 -15.5t4.5 -15.5q16 -78 52 -144.5t90 -115.5t123 -76.5t150 -27.5q78 0 154 43t117 106l24 -14l11 -113q-53 -49 -137.5 -88t-180.5 -39q-139 0 -261 57.5t-200 163.5q-8 -45 -28.5 -84.5t-57.5 -70.5t-95 -48.5t-142 -17.5 q-53 0 -107.5 18.5t-100.5 52.5t-80 81t-46 106q-29 127 35.5 197t195.5 90q102 16 159.5 28.5t83.5 27t28 31.5t-4 44q-10 49 -31 93t-53.5 78t-77.5 54.5t-103 20.5q-78 0 -138 -36t-83 -101h-37zM305 256q16 -82 75.5 -132t143.5 -50q37 0 72 13t59.5 39t37 64.5 t5.5 88.5q-6 31 -13 67.5t-15 69.5q-4 23 -7.5 40t-7.5 40q-23 -6 -46 -11.5t-52 -11.5q-49 -10 -99 -22.5t-88 -36t-57.5 -60.5t-7.5 -98zM813 693.5q-4 -58.5 2 -111.5q16 0 33.5 -1t34.5 -1q47 -2 94 -3.5t92 -1.5q47 0 93 1.5t93 3.5q20 0 35 1t35 1q-12 51 -33.5 109.5 t-58.5 107.5t-89 80.5t-126 31.5q-72 0 -115 -31.5t-64.5 -79.5t-25.5 -106.5z" />
<glyph unicode="&#xe7;" horiz-adv-x="968" d="M4 712.5q25 96.5 84 160t147.5 93t186.5 29.5q113 0 211 -29.5t147 -66.5q-8 -35 -13 -70.5t-5 -74.5h-27q-20 25 -50 53.5t-67.5 51t-81.5 37.5t-90 15q-88 0 -144 -32.5t-84 -90t-30 -135.5t17 -168q43 -205 152.5 -308t273.5 -103q78 0 153.5 43t116.5 106l27 -16 q2 -31 4 -59.5t6 -51.5q-49 -45 -125 -82t-164 -43q-4 -25 -7 -44t-5 -46q6 2 16.5 2h22.5q84 0 139 -42t72 -111q8 -45 -4.5 -79t-42 -57.5t-71.5 -35t-93 -11.5q-66 0 -118 13.5t-87 25.5l21 84q29 -10 69.5 -19t87.5 -9q45 0 74 19.5t20 55.5q-8 39 -38.5 54.5 t-67.5 15.5q-66 0 -88 -16l-29 22l31 182q-84 8 -170 40t-160 93.5t-131 154.5t-84 220q-27 133 -2 229.5z" />
<glyph unicode="&#xe8;" horiz-adv-x="972" d="M51 1423q-8 37 15.5 56.5t46.5 19.5q25 0 52.5 -14.5t55.5 -36.5l383 -320h-115l-339 193q-29 16 -60 38.5t-39 63.5zM87.5 680q10.5 100 55.5 170t125 107.5t195 37.5q109 0 195.5 -33.5t152.5 -91t109 -134.5t61 -163q4 -20 8 -44.5t6 -43.5q-37 0 -79 1t-78 1 q-72 2 -142.5 3.5t-142.5 1.5q-45 0 -88 -1.5t-88 -3.5q-23 0 -40.5 -1t-39.5 -1q2 -4 1 -8t1 -8q2 -8 4 -15.5t4 -15.5q16 -78 52 -144.5t90.5 -115.5t123 -76.5t150.5 -27.5q78 0 153.5 43t116.5 106l25 -14l12 -113q-53 -49 -138 -88t-181 -39q-111 0 -211.5 37 t-181 102.5t-136 155t-78.5 191.5q-27 125 -16.5 225zM280.5 693.5q-4.5 -58.5 2.5 -111.5q16 0 33.5 -1t33.5 -1q47 -2 94.5 -3.5t92.5 -1.5q47 0 93 1.5t93 3.5q20 0 34.5 1t35.5 1q-12 51 -34 109.5t-58.5 107.5t-89 80.5t-126.5 31.5q-72 0 -113.5 -31.5t-64 -79.5 t-27 -106.5z" />
<glyph unicode="&#xe9;" horiz-adv-x="976" d="M65.5 680q10.5 100 55.5 170t125 107.5t194 37.5q109 0 196 -33.5t152.5 -91t108.5 -134.5t61 -163q4 -20 8.5 -44.5t6.5 -43.5q-37 0 -79 1t-79 1q-72 2 -142.5 3.5t-142.5 1.5q-45 0 -88 -1.5t-88 -3.5q-23 0 -40 -1t-40 -1q2 -4 1 -8t1 -8q2 -8 4.5 -15.5t4.5 -15.5 q16 -78 52 -144.5t90 -115.5t122.5 -76.5t150.5 -27.5q78 0 154 43t117 106l24 -14l13 -113q-53 -49 -138.5 -88t-181.5 -39q-111 0 -211 37t-181 102.5t-136 155t-78 191.5q-27 125 -16.5 225zM252 1128l248 320q18 23 39.5 37t48.5 14q23 0 54.5 -19.5t39.5 -56.5 q8 -41 -13.5 -63.5t-43.5 -38.5q-63 -47 -129 -96t-131 -97h-113zM258 693.5q-4 -58.5 2 -111.5q16 0 33.5 -1t34.5 -1q47 -2 94 -3.5t92 -1.5q47 0 93 1.5t93 3.5q20 0 35 1t35 1q-12 51 -33.5 109.5t-58.5 107.5t-89 80.5t-126 31.5q-72 0 -114 -31.5t-64.5 -79.5 t-26.5 -106.5z" />
<glyph unicode="&#xea;" horiz-adv-x="985" d="M81.5 680q10.5 100 55.5 170t125 107.5t195 37.5q109 0 195.5 -33.5t152 -91t107.5 -134.5t61 -163q4 -20 8 -44.5t8 -43.5q-37 0 -80 1t-80 1q-72 2 -142.5 3.5t-141.5 1.5q-45 0 -88 -1.5t-88 -3.5q-23 0 -39.5 -1t-38.5 -1v-16q2 -8 4 -15.5t4 -15.5q16 -78 53 -144.5 t90.5 -115.5t122 -76.5t150.5 -27.5q78 0 154.5 43t117.5 106l23 -14l12 -113q-53 -49 -138 -88t-182 -39q-111 0 -211 37t-180 102.5t-136.5 155t-76.5 191.5q-27 125 -16.5 225zM96 1128l187 359h147l338 -359h-98l-283 209q-47 -51 -96 -104t-96 -105h-99zM274.5 693.5 q-4.5 -58.5 1.5 -111.5q16 0 34 -1t34 -1q47 -2 93 -3.5t91 -1.5q47 0 94.5 1.5t94.5 3.5q20 0 34.5 1t34.5 1q-12 51 -34.5 109.5t-59.5 107.5t-89 80.5t-126 31.5q-72 0 -113.5 -31.5t-63 -79.5t-26 -106.5z" />
<glyph unicode="&#xeb;" horiz-adv-x="999" d="M79.5 680q10.5 100 55.5 170t125 107.5t195 37.5q109 0 195.5 -33.5t152 -91t107.5 -134.5t61 -163q4 -20 8 -44.5t8 -43.5q-37 0 -80 1t-80 1q-72 2 -142.5 3.5t-141.5 1.5q-45 0 -88 -1.5t-88 -3.5q-23 0 -39.5 -1t-38.5 -1v-16q2 -8 4 -15.5t4 -15.5q16 -78 53 -144.5 t90.5 -115.5t122 -76.5t150.5 -27.5q78 0 153.5 43t118.5 106l23 -14l12 -113q-53 -49 -138 -88t-182 -39q-111 0 -211 37t-180 102.5t-136.5 155t-76.5 191.5q-27 125 -16.5 225zM82 1296q-10 47 16.5 80t73.5 33t86 -33t49 -80t-15.5 -79.5t-72.5 -32.5t-87 32.5t-50 79.5 zM272 693.5q-4 -58.5 2 -111.5q16 0 34 -1t34 -1q47 -2 93 -3.5t91 -1.5q47 0 94.5 1.5t94.5 3.5q20 0 34.5 1t34.5 1q-12 51 -34.5 109.5t-59.5 107.5t-89 80.5t-126 31.5q-72 0 -114 -31.5t-63.5 -79.5t-25.5 -106.5zM479 1296q-10 47 16.5 80t73.5 33t87 -33t51 -80 q10 -47 -16.5 -79.5t-74.5 -32.5q-47 0 -87 32.5t-50 79.5z" />
<glyph unicode="&#xec;" horiz-adv-x="514" d="M-133 1423q-8 37 14.5 56.5t44.5 19.5q27 0 54.5 -14.5t52.5 -36.5l385 -320h-113l-340 193q-31 16 -60.5 38.5t-37.5 63.5zM180 977q57 -12 107 -12q47 0 100 12q10 -98 28.5 -199.5t37.5 -189.5l45 -211q18 -88 43.5 -189.5t56.5 -199.5q-59 12 -106 12q-49 0 -101 -12 q-10 98 -27.5 199.5t-35.5 189.5l-45 211q-18 88 -44 189.5t-59 199.5z" />
<glyph unicode="&#xed;" horiz-adv-x="514" d="M-68 1128l244 320q16 23 39 37t49 14q23 0 53.5 -19.5t38.5 -56.5q8 -41 -11 -63.5t-42 -38.5q-66 -47 -131.5 -96t-128.5 -97h-111zM20 977q57 -12 109 -12q45 0 98 12q10 -98 28.5 -199.5t37.5 -189.5l45 -211q18 -88 44 -189.5t56 -199.5q-59 12 -104 12 q-51 0 -103 -12q-10 98 -27.5 199.5t-35.5 189.5l-45 211q-18 88 -44 189.5t-59 199.5z" />
<glyph unicode="&#xee;" horiz-adv-x="681" d="M-78 1128l187 359h145l340 -359h-100l-283 209q-45 -51 -95 -104t-96 -105h-98zM186 977q51 -12 105 -12q47 0 100 12q10 -98 27.5 -199.5t36.5 -189.5l45 -211q18 -88 43.5 -189.5t56.5 -199.5q-55 12 -104 12q-51 0 -101 -12q-10 98 -27.5 199.5t-35.5 189.5l-45 211 q-18 88 -44 189.5t-57 199.5z" />
<glyph unicode="&#xef;" horiz-adv-x="675" d="M-102 1296q-10 47 16.5 80t73.5 33t86 -33t49 -80t-16.5 -79.5t-73.5 -32.5q-45 0 -85 32.5t-50 79.5zM174 977q51 -12 105 -12q47 0 100 12q10 -98 27.5 -199.5t35.5 -189.5l45 -211q18 -88 44 -189.5t57 -199.5q-55 12 -105 12q-51 0 -100 -12q-10 98 -27.5 199.5 t-36.5 189.5l-45 211q-18 88 -43.5 189.5t-56.5 199.5zM293 1296q-10 47 17.5 80t74.5 33t86 -33t49 -80t-15.5 -79.5t-72.5 -32.5t-88 32.5t-51 79.5z" />
<glyph unicode="&#xf0;" horiz-adv-x="1099" d="M-76 1503l156 41q84 -51 158.5 -99t140.5 -93q61 18 120.5 40.5t118.5 49.5q27 -49 74 -90q-59 -16 -115.5 -31.5t-109.5 -34.5q297 -213 452.5 -406.5t198.5 -396.5q31 -141 6.5 -239.5t-84 -158.5t-143.5 -88t-172 -28q-90 0 -185.5 28t-179.5 88t-149 158.5t-96 239.5 t-6.5 238.5t84 158t142.5 88t173 27.5q18 0 37.5 -1t36.5 -3q-68 61 -137.5 120.5t-143.5 115.5q-123 -41 -246 -90q-27 35 -71 90q55 16 113.5 32.5t119.5 36.5q-66 49 -136.5 100.5t-156.5 106.5zM294 642q1 -77 19 -159q18 -84 49 -160.5t79 -136t114 -95.5t152 -36 t136 36t73.5 95.5t22.5 136t-19 160.5q-18 82 -50 159t-80.5 137.5t-114 96t-151.5 35.5t-136 -35.5t-72.5 -96t-21.5 -137.5z" />
<glyph unicode="&#xf1;" horiz-adv-x="966" d="M4 977q57 -12 105 -12q39 0 92 12q4 -33 9 -63.5t9 -57.5q4 -16 6 -22q39 78 106.5 119.5t172.5 41.5q57 0 119.5 -16t120 -56t102.5 -111t67 -177q20 -92 35 -183.5t37 -191.5q14 -66 29.5 -136.5t32.5 -135.5q-55 12 -97 12q-41 0 -92 -12l-31 176q-12 72 -24 142.5 t-29 144.5l-24 122q-31 145 -104 221t-169 76q-137 0 -182 -84t-12 -237l36 -172q18 -88 44 -189.5t55 -199.5q-53 12 -105 12q-45 0 -100 -12q-10 98 -27.5 199.5t-35.5 189.5l-46 211q-18 88 -43.5 189.5t-56.5 199.5zM37 1180q-2 39 6 79.5t27.5 73.5t54.5 53.5t86 20.5 q35 0 65.5 -9t96.5 -38q59 -27 85.5 -36t53.5 -9q41 0 60.5 29.5t23.5 70.5h80q2 -27 -2 -66.5t-23.5 -77.5t-56.5 -64.5t-100 -26.5q-59 0 -160 47q-55 27 -85 36t-52 9q-41 0 -55.5 -19.5t-22.5 -72.5h-82z" />
<glyph unicode="&#xf2;" horiz-adv-x="1081" d="M78 1423q-8 37 15.5 56.5t45.5 19.5q25 0 52.5 -14.5t56.5 -36.5l383 -320h-113l-342 193q-29 16 -59.5 38.5t-38.5 63.5zM96 721.5q25 97.5 83.5 158t141 88t173.5 27.5q88 0 184 -27.5t181 -88t150.5 -157.5t94.5 -239q31 -141 7 -239.5t-83 -158.5t-143 -88t-172 -28 q-90 0 -185.5 28t-179.5 88t-150.5 158.5t-97.5 239.5q-29 141 -4 238.5zM282 642q1 -77 17 -159q18 -84 50 -160.5t80 -136t113.5 -95.5t151.5 -36t136.5 36t73 95.5t21.5 136t-20 160.5q-16 82 -48 159t-80 137.5t-113.5 96t-151.5 35.5t-136 -35.5t-72.5 -96 t-21.5 -137.5z" />
<glyph unicode="&#xf3;" horiz-adv-x="1079" d="M73.5 721.5q24.5 97.5 83 158t141.5 88t173 27.5q88 0 184.5 -27.5t181.5 -88t150.5 -157.5t93.5 -239q31 -141 7.5 -239.5t-83 -158.5t-143.5 -88t-172 -28q-90 0 -185 28t-179 88t-150.5 158.5t-97.5 239.5q-29 141 -4.5 238.5zM259 642q1 -77 17 -159 q18 -84 50 -160.5t80.5 -136t114 -95.5t151.5 -36t136 36t72.5 95.5t21.5 136t-19 160.5q-16 82 -48 159t-80 137.5t-114 96t-152 35.5t-136 -35.5t-72.5 -96t-21.5 -137.5zM279 1128l247 320q18 23 40 37t48 14q23 0 54.5 -19.5t40.5 -56.5q8 -41 -13.5 -63.5t-44.5 -38.5 q-63 -47 -128.5 -96t-131.5 -97h-112z" />
<glyph unicode="&#xf4;" horiz-adv-x="1089" d="M88 721.5q25 97.5 84 158t142 88t173 27.5q88 0 184.5 -27.5t180.5 -88t149.5 -157.5t96.5 -239q31 -141 6 -239.5t-84 -158.5t-143 -88t-172 -28q-90 0 -185.5 28t-179.5 88t-149.5 158.5t-96.5 239.5t-6 238.5zM123 1128l188 359h146l340 -359h-101l-282 209 q-45 -51 -95.5 -104t-95.5 -105h-100zM273.5 642q1.5 -77 19.5 -159q18 -84 49 -160.5t79 -136t113.5 -95.5t151.5 -36t136 36t74 95.5t23 136t-20 160.5q-18 82 -50 159t-80 137.5t-113.5 96t-151.5 35.5t-136.5 -35.5t-73 -96t-21 -137.5z" />
<glyph unicode="&#xf5;" horiz-adv-x="1099" d="M84 721.5q25 97.5 84 158t142 88t173 27.5q88 0 184.5 -27.5t180.5 -88t149.5 -157.5t96.5 -239q31 -141 6 -239.5t-83.5 -158.5t-142 -88t-172.5 -28q-90 0 -185 28t-180 88t-150.5 158.5t-96.5 239.5t-6 238.5zM100 1180q-2 39 6.5 79.5t28 73.5t54 53.5t85.5 20.5 q35 0 66 -9t96 -38q59 -27 86 -36t53 -9q41 0 60.5 29.5t23.5 70.5h80q2 -27 -2 -66.5t-23.5 -77.5t-56 -64.5t-100.5 -26.5q-59 0 -160 47q-55 27 -84.5 36t-52.5 9q-41 0 -55.5 -19.5t-22.5 -72.5h-82zM269.5 642q1.5 -77 19.5 -159q18 -84 50 -160.5t80 -136t113.5 -95.5 t151.5 -36t136 36t72.5 95.5t21.5 136t-19 160.5q-18 82 -49 159t-79 137.5t-113.5 96t-151.5 35.5t-136.5 -35.5t-74 -96t-22 -137.5z" />
<glyph unicode="&#xf6;" horiz-adv-x="1099" d="M84 721.5q25 97.5 84 158t142 88t173 27.5q88 0 184.5 -27.5t180.5 -88t149.5 -157.5t96.5 -239q31 -141 6 -239.5t-84.5 -158.5t-143.5 -88t-172 -28q-90 0 -185 28t-179 88t-149.5 158.5t-96.5 239.5t-6 238.5zM106 1296q-10 47 17 80t74 33t87 -33t50 -80t-16.5 -79.5 t-73.5 -32.5t-87.5 32.5t-50.5 79.5zM269.5 642q1.5 -77 19.5 -159q18 -84 49 -160.5t79 -136t113.5 -95.5t151.5 -36t136 36t73.5 95.5t22.5 136t-19 160.5q-18 82 -50 159t-80 137.5t-113.5 96t-151.5 35.5t-136.5 -35.5t-73 -96t-21 -137.5zM504 1296q-10 47 17.5 80 t74.5 33t86 -33t49 -80t-15.5 -79.5t-72.5 -32.5t-88 32.5t-51 79.5z" />
<glyph unicode="&#xf7;" horiz-adv-x="1056" d="M-4 584h1038l27 -125h-1041zM317 918q-10 51 17.5 87.5t81.5 36.5q53 0 97 -36.5t54 -87.5q10 -53 -17.5 -90t-80.5 -37t-97.5 37t-54.5 90zM487 125q-12 53 16.5 89t82.5 36q53 0 96 -36t55 -89q10 -51 -18.5 -88t-81.5 -37t-96.5 37t-53.5 88z" />
<glyph unicode="&#xf8;" horiz-adv-x="1189" d="M98 721.5q25 97.5 84.5 158t142.5 88t173 27.5q80 0 163.5 -20.5t167.5 -71.5q35 49 65 95t40 75q35 -41 82 -61q-18 -20 -54 -64.5t-71 -91.5q78 -66 132 -155t83 -218q31 -141 6 -239.5t-83 -158.5t-142 -88t-172 -28q-86 0 -174 23.5t-174 79.5q-35 -49 -66 -97.5 t-49 -74.5q-27 33 -80 53q6 8 20.5 25.5t33 42t38 51t37.5 53.5q-70 66 -120 150.5t-77 207.5q-31 141 -6 238.5zM284 642q1 -77 19 -159q25 -125 84 -231l375 549q-41 53 -105.5 81.5t-142.5 28.5q-86 0 -136 -35.5t-72.5 -96t-21.5 -137.5zM438 176q47 -59 109.5 -90 t148.5 -31t136.5 36t74 95.5t22.5 136t-20 160.5q-16 72 -38.5 135.5t-57.5 116.5z" />
<glyph unicode="&#xf9;" horiz-adv-x="935" d="M8 1423q-6 37 16.5 56.5t45.5 19.5q25 0 52.5 -14.5t55.5 -36.5l383 -320h-112l-343 193q-29 16 -59.5 38.5t-38.5 63.5zM12 977q55 -12 97 -12q43 0 92 12q16 -119 42.5 -271.5t59.5 -302.5q23 -102 51.5 -155t57.5 -82q35 -31 81 -51.5t101 -20.5q78 0 126 37t62 86 q8 31 10.5 57.5t-2 68.5t-17.5 109.5t-38 182.5q-18 82 -38.5 176t-39.5 166q55 -12 99 -12q47 0 90 12q25 -158 54.5 -311.5t64.5 -313.5q20 -92 41.5 -185t44.5 -179q-49 12 -90 12q-16 0 -40 -4t-51 -10q-6 35 -11 63.5t-9 54.5q-4 10 -5 18.5t-3 18.5 q-37 -78 -108.5 -125t-162.5 -47q-162 0 -273 89t-146 253q-12 57 -20.5 105.5t-16.5 89.5q-6 37 -13.5 70.5t-13.5 68.5q-16 72 -35.5 159t-40.5 173z" />
<glyph unicode="&#xfa;" horiz-adv-x="935" d="M-14 977q51 -12 94 -12t92 12q16 -119 43 -271.5t59 -302.5q23 -102 51.5 -155t57.5 -82q35 -31 81 -51.5t101 -20.5q78 0 126 37t63 86q8 31 10 57.5t-2 68.5t-17.5 109.5t-37.5 182.5q-18 82 -39 176t-39 166q55 -12 98 -12q47 0 90 12q25 -158 54.5 -311.5 t64.5 -313.5q20 -92 41.5 -185t44.5 -179q-49 12 -90 12q-16 0 -40 -4t-50 -10q-6 35 -11.5 63.5t-9.5 54.5q-4 10 -5 18.5t-3 18.5q-37 -78 -108.5 -125t-161.5 -47q-162 0 -273.5 89t-146.5 253q-12 57 -20.5 105.5t-16.5 89.5q-6 37 -13 70.5t-14 68.5q-16 72 -35.5 159 t-37.5 173zM203 1128l248 320q18 23 39.5 37t48.5 14q23 0 54.5 -19.5t39.5 -56.5q8 -41 -13.5 -63.5t-44.5 -38.5q-63 -47 -128.5 -96t-131.5 -97h-112z" />
<glyph unicode="&#xfb;" horiz-adv-x="952" d="M6 977q51 -12 96 -12q39 0 93 12q16 -119 41.5 -271.5t58.5 -302.5q23 -102 52.5 -155t58.5 -82q35 -31 79.5 -51.5t100.5 -20.5q78 0 126 37t62 86q8 31 10 57.5t-2 68.5t-17 109.5t-38 182.5q-16 82 -36.5 176t-39.5 166q51 -12 99 -12q25 0 46 3t44 9 q23 -158 52.5 -311.5t63.5 -313.5q20 -92 42 -185t44 -179q-49 12 -90 12q-16 0 -38.5 -4t-51.5 -10q-10 72 -20 118q-2 10 -3 18.5t-5 18.5q-37 -78 -109 -125t-162 -47q-162 0 -272.5 89t-145.5 253q-12 57 -21 105.5t-18 89.5q-6 37 -12 70.5t-14 68.5q-16 72 -35.5 159 t-38.5 173zM53 1128l189 359h145l340 -359h-100l-283 209q-45 -51 -95 -104t-95 -105h-101z" />
<glyph unicode="&#xfc;" horiz-adv-x="964" d="M4 977q51 -12 96 -12q39 0 93 12q16 -119 41.5 -271.5t58.5 -302.5q23 -102 52.5 -155t57.5 -82q35 -31 80 -51.5t101 -20.5q78 0 126 37t62 86q8 31 10 57.5t-2 68.5t-17 109.5t-38 182.5q-16 82 -36.5 176t-39.5 166q51 -12 99 -12q25 0 46 3t44 9q23 -158 52.5 -311.5 t63.5 -313.5q20 -92 42 -185t44 -179q-49 12 -90 12q-16 0 -38.5 -4t-51.5 -10q-10 72 -20 118q-2 10 -3 18.5t-6 18.5q-37 -78 -108.5 -125t-161.5 -47q-162 0 -272.5 89t-145.5 253q-12 57 -21 105.5t-18 89.5q-6 37 -12 70.5t-14 68.5q-16 72 -35.5 159t-38.5 173z M39 1296q-10 47 16.5 80t73.5 33t87 -33t50 -80t-16.5 -79.5t-73.5 -32.5t-87 32.5t-50 79.5zM436 1296q-10 47 17.5 80t74.5 33t86 -33t50 -80q10 -47 -15.5 -79.5t-73.5 -32.5q-47 0 -88 32.5t-51 79.5z" />
<glyph unicode="&#xfd;" horiz-adv-x="964" d="M-100 979q35 -6 64.5 -10t49.5 -4q43 0 97 12q92 -174 200.5 -350t220.5 -357q8 -14 17.5 -27.5t17.5 -25.5q43 172 76 369.5t53 390.5q43 -12 78 -12q27 0 82 16q-8 -29 -25.5 -97.5t-41 -164.5t-52 -212t-57.5 -239t-55.5 -245.5t-49 -230t-38 -196t-21.5 -139.5 q-43 12 -76 13q-33 -1 -88 -17q55 141 95 276.5t69 268.5q-37 61 -90 148t-115.5 185.5t-126 200t-120 190.5t-100.5 156.5t-64 100.5zM182 1128l248 320q16 23 37.5 37t48.5 14q23 0 54.5 -19.5t39.5 -56.5q4 -20 0 -35.5t-12 -27.5t-20.5 -21.5t-22.5 -17.5 q-66 -47 -130.5 -96t-129.5 -97h-113z" />
<glyph unicode="&#xfe;" horiz-adv-x="1024" d="M-141 1540q57 -12 108 -12q43 0 96 12q6 -57 18.5 -132t28 -154.5t32 -159.5t30.5 -148l33 -137q12 33 33.5 65.5t56.5 59.5t85 44t118 17q78 0 159.5 -29.5t154.5 -91t129 -157.5t85 -228q29 -131 10.5 -229t-68.5 -162.5t-124 -96.5t-154 -32q-104 0 -190 44t-158 128 l20 -90q14 -68 33 -148.5t37.5 -160.5t37.5 -153.5t36 -131.5q-55 12 -105 13q-47 0 -102 -13q-6 57 -18.5 132t-26.5 155t-30.5 160t-30.5 147l-191 895q-14 68 -31.5 149t-36 160.5t-38 153.5t-37.5 131zM254 635q0 -76 18 -160q86 -410 371 -409q70 0 115 32.5t66.5 90 t21 135.5t-18.5 168q-25 117 -64.5 194.5t-87.5 122.5t-100.5 63.5t-99.5 18.5q-80 0 -128 -34t-70.5 -90t-22.5 -132z" />
<glyph unicode="&#xff;" horiz-adv-x="970" d="M-100 979q33 -6 62.5 -10t49.5 -4q45 0 99 12q92 -174 199.5 -350t219.5 -357q8 -14 17.5 -27.5t19.5 -25.5q41 172 74 369.5t55 390.5q43 -12 76 -12q27 0 82 16q-8 -29 -25.5 -97.5t-41 -164.5t-51 -212t-56.5 -239t-56.5 -245.5t-50 -230t-38 -196t-21.5 -139.5 q-41 12 -76 13q-33 -1 -88 -17q55 141 96 276.5t68 268.5q-37 61 -90 148t-114.5 185.5t-125 200t-120 190.5t-100.5 156.5t-64 100.5zM0 1296q-10 47 14.5 80t71.5 33t88 -33t51 -80t-17.5 -79.5t-74.5 -32.5t-86 32.5t-47 79.5zM395 1296q-10 47 16.5 80t73.5 33t87 -33 t51 -80q10 -47 -16.5 -79.5t-74.5 -32.5q-47 0 -87 32.5t-50 79.5z" />
<glyph unicode="&#x152;" horiz-adv-x="2060" d="M64.5 997.5q25.5 141.5 104.5 237.5t203 145.5t283 49.5q115 0 204 -22t155.5 -53.5t113 -66.5t74.5 -61q-10 47 -21.5 89t-23.5 87q86 -4 173 -7t171 -3q82 0 170 3t168 7q-4 -47 2 -72q4 -16 12.5 -35.5t18.5 -42.5q-35 6 -71 13.5t-90 11.5t-134 7t-201 3 q4 -18 7 -38.5t6 -37.5q10 -66 23 -134t28 -134l33 -156q109 0 178 1.5t115 3.5t74 4t52 4q6 0 17.5 1t17.5 1q-4 -39 0 -66q4 -12 11.5 -29.5t17.5 -37.5q-6 0 -19.5 1t-19.5 1q-25 2 -54.5 4t-75.5 4t-115.5 3t-176.5 1l41 -192q16 -76 33.5 -151t36.5 -148 q6 -23 12 -44.5t10 -44.5q215 0 330 8.5t166 16.5q-4 -45 2 -70q4 -23 28 -69q-86 4 -177 7t-177 3t-178 -3t-178 -7q-6 47 -11.5 85t-13.5 72l-6 31q-27 -37 -64.5 -76t-94 -69.5t-135.5 -50t-185 -19.5q-145 0 -284.5 49t-254 140.5t-198.5 222.5t-119 297 q-39 184 -13.5 325.5zM272.5 983q-16.5 -121 18.5 -287t102.5 -285.5t154.5 -198.5t189.5 -116t206.5 -37q119 0 204 46.5t134 130t60.5 200.5t-19.5 260q-37 174 -101.5 296t-146.5 198t-180 110.5t-203 34.5q-113 0 -203 -37.5t-145 -115.5t-71.5 -199z" />
<glyph unicode="&#x153;" horiz-adv-x="1837" d="M68.5 721.5q23.5 97.5 82 158t141.5 88t173 27.5q109 0 223.5 -42t204.5 -128q41 80 124 125t206 45q109 0 195.5 -33.5t152 -91t108.5 -134.5t62 -163q4 -20 8 -44.5t6 -43.5q-37 0 -79 1t-79 1q-72 2 -143.5 3.5t-142.5 1.5q-43 0 -86 -1.5t-88 -3.5q-23 0 -40.5 -1 t-39.5 -1q2 -4 1 -8t1 -8q2 -8 4 -15.5t4 -15.5q16 -78 52 -144.5t90.5 -115.5t124 -76.5t151.5 -27.5q78 0 152.5 43t117.5 106l23 -14l10 -113q-53 -49 -137 -88t-181 -39q-123 0 -234.5 48.5t-193.5 125.5q-53 -90 -150 -132t-208 -42q-90 0 -185.5 28t-179 88 t-149.5 158.5t-96 239.5q-29 141 -5.5 238.5zM253 642q1 -77 17 -159q18 -84 50 -160.5t80.5 -136t114 -95.5t151.5 -36q88 0 138 36t72.5 95.5t21.5 136t-19 160.5q-16 82 -48 159t-79 137.5t-114 96t-155 35.5q-86 0 -136 -35.5t-72.5 -96t-21.5 -137.5zM1040 693.5 q-4 -58.5 2 -111.5q16 0 34 -1t34 -1q47 -2 95 -3.5t91 -1.5q47 0 93.5 1.5t93.5 3.5q23 0 37 1t32 1q-12 51 -33.5 109.5t-57.5 107.5t-89 80.5t-127 31.5q-72 0 -115 -31.5t-64.5 -79.5t-25.5 -106.5z" />
<glyph unicode="&#x178;" horiz-adv-x="1193" d="M-111 1407q41 -6 76 -10t60 -4q49 0 110 12q127 -174 256 -343t273 -349q31 72 61.5 155.5t60 174t56 182.5t49.5 180q49 -12 90 -12q31 0 96 16q-68 -154 -120 -276.5t-92 -221t-68.5 -176.5t-48.5 -139q16 -74 36.5 -162t41 -174t38 -158.5t29.5 -113.5q-66 12 -111 12 q-51 0 -108 -12q-10 121 -40 272.5t-65 310.5q-29 37 -83 103.5t-120.5 149.5t-138 172t-138 170t-120 144.5t-80.5 96.5zM139 1645q-10 47 16.5 79.5t73.5 32.5t86 -32.5t50 -79.5q10 -47 -15.5 -81t-73.5 -34q-47 0 -87 34t-50 81zM537 1645q-10 47 16.5 79.5t73.5 32.5 t87 -32.5t50 -79.5t-16.5 -81t-73.5 -34t-87 34t-50 81z" />
<glyph unicode="&#x2c6;" horiz-adv-x="724" d="M61 1128l189 359h145l340 -359h-100l-283 209q-45 -51 -95 -104t-95 -105h-101z" />
<glyph unicode="&#x2dc;" horiz-adv-x="804" d="M80 1180q-2 39 6 79.5t27.5 73.5t54.5 53.5t86 20.5q35 0 65.5 -9t96.5 -38q59 -27 85.5 -36t53.5 -9q41 0 60.5 29.5t23.5 70.5h80q2 -27 -3 -66.5t-23.5 -77.5t-55.5 -64.5t-100 -26.5q-59 0 -160 47q-55 27 -85 36t-52 9q-41 0 -56.5 -19.5t-21.5 -72.5h-82z" />
<glyph unicode="&#x2000;" horiz-adv-x="938" />
<glyph unicode="&#x2001;" horiz-adv-x="1876" />
<glyph unicode="&#x2002;" horiz-adv-x="938" />
<glyph unicode="&#x2003;" horiz-adv-x="1876" />
<glyph unicode="&#x2004;" horiz-adv-x="625" />
<glyph unicode="&#x2005;" horiz-adv-x="469" />
<glyph unicode="&#x2006;" horiz-adv-x="312" />
<glyph unicode="&#x2007;" horiz-adv-x="312" />
<glyph unicode="&#x2008;" horiz-adv-x="234" />
<glyph unicode="&#x2009;" horiz-adv-x="375" />
<glyph unicode="&#x200a;" horiz-adv-x="104" />
<glyph unicode="&#x2010;" d="M66 549h522l30 -146h-522z" />
<glyph unicode="&#x2011;" d="M66 549h522l30 -146h-522z" />
<glyph unicode="&#x2012;" d="M66 549h522l30 -146h-522z" />
<glyph unicode="&#x2013;" horiz-adv-x="1202" d="M74 532h1028l22 -114h-1028z" />
<glyph unicode="&#x2014;" horiz-adv-x="2224" d="M80 532h2040l22 -114h-2040z" />
<glyph unicode="&#x2018;" horiz-adv-x="360" d="M49 907q-4 20 3 43t11 45v2v2v-2q39 106 82 217t82 218l60 -21l-54 -498q-2 -29 -18 -57.5t-61 -28.5q-29 0 -62 18.5t-43 61.5z" />
<glyph unicode="&#x2019;" horiz-adv-x="360" d="M72 846l53 500q2 29 18.5 56.5t61.5 27.5q29 0 60.5 -18.5t41.5 -59.5q4 -23 -2 -46.5t-12 -45.5h2q-41 -106 -83 -217t-81 -218zM295 1257v3v-3z" />
<glyph unicode="&#x201a;" horiz-adv-x="360" d="M72 -336l53 500q2 29 18.5 56.5t61.5 27.5q29 0 60.5 -18.5t41.5 -59.5q4 -23 -2 -46.5t-12 -45.5h2q-41 -106 -83 -217t-81 -217zM295 76v2v-2z" />
<glyph unicode="&#x201c;" horiz-adv-x="770" d="M82 907q-4 20 3 43t11 45v2v2v-2q41 106 83 217t81 218l59 -21l-53 -498q-2 -29 -18.5 -57.5t-61.5 -28.5q-29 0 -61.5 18.5t-42.5 61.5zM430 907q-4 20 3 43t11 45v2v2v-2q39 106 82 217t82 218l60 -21l-54 -498q-2 -29 -18 -57.5t-64 -28.5q-27 0 -59.5 18.5 t-42.5 61.5z" />
<glyph unicode="&#x201d;" horiz-adv-x="772" d="M102 846l54 500q2 29 18 56.5t64 27.5q27 0 58.5 -18.5t41.5 -59.5q4 -23 -2 -46.5t-12 -45.5h2q-41 -106 -83 -217t-81 -218zM326 1257v3v-3zM451 846l53 500q2 29 18.5 56.5t61.5 27.5q29 0 60.5 -18.5t41.5 -59.5q4 -23 -2 -46.5t-12 -45.5h2q-41 -106 -83 -217 t-81 -218zM674 1257v3v-3z" />
<glyph unicode="&#x201e;" horiz-adv-x="772" d="M102 -336l54 500q2 29 18 56.5t64 27.5q27 0 58.5 -18.5t41.5 -59.5q4 -23 -2 -46.5t-12 -45.5h2q-41 -106 -83 -217t-81 -217zM326 76v2v-2zM451 -336l53 500q2 29 18.5 56.5t61.5 27.5q29 0 60.5 -18.5t41.5 -59.5q4 -23 -2 -46.5t-12 -45.5h2q-41 -106 -83 -217 t-81 -217zM674 76v2v-2z" />
<glyph unicode="&#x2022;" horiz-adv-x="819" d="M53.5 834.5q14.5 64.5 52 112.5t96 76t132.5 28t144.5 -28t129 -76t99.5 -112.5t57 -138.5q14 -74 1 -137t-52 -111.5t-97.5 -76t-132.5 -27.5t-144.5 27.5t-127.5 76t-99.5 111.5t-56.5 137q-16 74 -1.5 138.5z" />
<glyph unicode="&#x2026;" horiz-adv-x="1765" d="M86 100q-12 53 16.5 89t81.5 36q51 0 95.5 -35.5t56.5 -89.5q10 -51 -19.5 -88t-80.5 -37q-53 0 -96.5 37t-53.5 88zM758 100q-12 53 16.5 89t81.5 36t96 -35.5t56 -89.5q10 -51 -18.5 -88t-82.5 -37q-53 0 -96 37t-53 88zM1430 100q-12 53 17.5 89t80.5 36 q53 0 96 -35.5t55 -89.5q10 -51 -18.5 -88t-81.5 -37q-51 0 -95 37t-54 88z" />
<glyph unicode="&#x202f;" horiz-adv-x="375" />
<glyph unicode="&#x2039;" horiz-adv-x="403" d="M0 479l180 395q16 -23 45 -42t64 -23l-162 -328q72 -86 145.5 -174t145.5 -170q-27 -4 -49.5 -23.5t-28.5 -41.5z" />
<glyph unicode="&#x203a;" horiz-adv-x="399" d="M-18 819q25 4 47 23.5t28 44.5l342 -408l-182 -397q-16 23 -45 42t-63 23l161 330z" />
<glyph unicode="&#x205f;" horiz-adv-x="469" />
<glyph unicode="&#x20ac;" horiz-adv-x="1181" d="M18 711q12 70 9 141q18 -4 52 -7t77 -5q0 115 30.5 213t89 169.5t140.5 112.5t186 41q90 0 194.5 -28.5t184.5 -73.5l6 -12q-8 -41 -10 -82t0 -84l-43 -2q-66 86 -155 131t-161 45q-125 0 -198.5 -107.5t-61.5 -324.5h324q55 0 113.5 2t117.5 14q-10 -33 -11 -76t-1 -65 q-51 10 -105.5 12t-101.5 2h-323q4 -23 9 -48.5t9 -49.5l2 -6h277q57 0 114.5 2t116.5 14q-8 -33 -10 -76t-2 -65q-51 8 -105.5 10t-101.5 2h-256q33 -100 83 -180t108.5 -135.5t123 -84t129.5 -28.5q162 0 281 162l31 -39q0 -29 3 -58.5t7 -64.5q-23 -23 -59.5 -43.5 t-80.5 -34.5t-94.5 -22.5t-95.5 -8.5q-102 0 -199.5 36t-180.5 104.5t-150.5 169t-110.5 227.5q-47 -2 -86 -5t-70 -9q6 35 8.5 70.5t0.5 70.5q16 -4 45.5 -7t66.5 -5l-6 28q-4 18 -8 38t-6 36q-47 -2 -82 -5t-64 -11z" />
<glyph unicode="&#x2122;" horiz-adv-x="1781" d="M-37 1403q78 -4 164 -7t164 -3q80 0 165 3t162 7q-4 -16 -6 -27.5t-2 -17.5q4 -16 29 -51q-66 4 -135.5 8t-134.5 4l59 -275q18 -90 38.5 -180t43.5 -180q8 -29 16.5 -66.5t16.5 -66.5q-23 6 -42.5 10t-33.5 4q-12 0 -30.5 -4t-39.5 -10l-8 41q-14 78 -32.5 182.5 t-49.5 253.5l-63 291q-66 0 -133.5 -4t-126.5 -8q10 33 4 51q0 10 -25 45zM743 1415h39q90 -133 173 -247.5t165 -221.5v2q37 -45 70 -86t70 -86l59 166q39 111 81 236t77 237h30l82 -266q20 -68 47 -148.5t54.5 -160.5t53 -156t48.5 -135q-49 16 -70 16q-14 0 -30.5 -4 t-36.5 -10q-23 86 -51.5 191.5t-67.5 222.5q-18 53 -32.5 94t-35.5 96q-10 -33 -21 -64.5t-22 -62.5q-18 -53 -37.5 -114.5t-38 -124t-32.5 -120t-23 -100.5h-32q-61 92 -110.5 161t-96.5 132q-25 33 -48.5 62.5t-45.5 62.5q-31 45 -57.5 77t-61.5 77q4 -47 8 -96.5 t10 -96.5q8 -96 21.5 -194.5t33.5 -204.5q-43 16 -57 16q-23 0 -61 -16q0 123 -8.5 273.5t-18.5 293.5q-8 72 -14 149.5t-13 149.5z" />
<glyph unicode="&#x25fc;" horiz-adv-x="983" d="M0 0v983h983v-983h-983z" />
<glyph unicode="&#xfb01;" horiz-adv-x="1038" d="M-6 965q16 0 41.5 -1t44.5 -1h59q-12 61 -13 129.5t8 134t29.5 124t51.5 99.5q29 39 81 66.5t112 27.5q10 0 24 -2t29 -6q4 -20 6 -38.5t4 -35.5q4 -23 9 -51.5t9 -48.5l-22 -10q-53 29 -115 28q-41 0 -67.5 -16t-40 -42t-14.5 -60.5t8 -71.5q6 -35 26.5 -100.5 t42.5 -126.5h94q27 0 60 1t59 1q0 -33 4 -50q4 -23 17 -51q-16 0 -41 1t-41 1q-35 2 -64.5 3t-64.5 1q47 -219 94 -439t100 -443q-55 12 -98 12q-47 0 -98 -12q-35 223 -78 441t-90 441q-23 0 -43.5 -1t-42.5 -3q-12 0 -30.5 -1t-31.5 -1q-2 14 -2 27.5t-2 23.5 q-2 6 -6 19.5t-8 30.5zM623 1317q-10 47 17.5 80t74.5 33t86 -33t49 -80t-15.5 -80t-72.5 -33t-88 33t-51 80zM707 977q55 -12 106 -12q45 0 100 12q10 -98 27.5 -199.5t36.5 -189.5l45 -211q18 -88 44 -189.5t56 -199.5q-59 12 -104 12q-51 0 -103 -12q-10 98 -27.5 199.5 t-35.5 189.5l-45 211q-18 88 -44 189.5t-56 199.5z" />
<glyph unicode="&#xfb02;" horiz-adv-x="1050" d="M-6 965q16 0 41.5 -1t44.5 -1h59q-12 61 -13 129.5t8 134t29.5 124t51.5 99.5q29 39 81 66.5t112 27.5q10 0 24 -2t29 -6q4 -20 6 -38.5t4 -35.5q4 -23 9 -51.5t9 -48.5l-22 -10q-53 29 -115 28q-41 0 -67.5 -16t-40 -42t-14.5 -60.5t8 -71.5q6 -35 26.5 -100.5 t42.5 -126.5h94q27 0 60 1t59 1q0 -33 4 -50q4 -23 17 -51q-16 0 -41 1t-41 1q-35 2 -64.5 3t-64.5 1q47 -219 94 -439t100 -443q-55 12 -98 12q-47 0 -98 -12q-35 223 -78 441t-90 441q-23 0 -43.5 -1t-42.5 -3q-12 0 -30.5 -1t-31.5 -1q-2 14 -2 27.5t-2 23.5 q-2 6 -6 19.5t-8 30.5zM598 1540q57 -12 104 -12q49 0 103 12q6 -57 18.5 -132t27.5 -154.5t31.5 -159.5t30.5 -148l78 -364q14 -68 32.5 -149t37 -160.5t38 -153.5t36.5 -131q-59 12 -107 12q-49 0 -100 -12q-6 57 -18.5 132t-28 154.5t-30.5 159.5t-30 148l-78 364 q-14 68 -32.5 149t-37 160.5t-38 153.5t-37.5 131z" />
</font>
</defs>
</svg>
